{"glyphs":{"0":{"ha":894,"x_min":113,"x_max":783,"o":"m 456 -32 q 193 54 288 -32 q 113 453 113 250 q 155 715 113 601 q 256 890 197 829 q 440 924 361 924 q 703 838 608 924 q 783 439 783 642 q 741 176 783 290 q 640 1 699 63 q 456 -32 535 -32 m 606 672 q 596 786 606 738 q 499 796 556 796 q 345 528 400 686 q 290 219 290 371 q 300 106 290 154 q 397 96 340 96 q 551 363 496 206 q 606 672 606 521 z "},"1":{"ha":657,"x_min":0,"x_max":532,"o":"m 482 926 l 532 903 l 436 -6 l 283 -19 l 232 647 l 72 533 l 0 683 l 482 926 z "},"2":{"ha":804,"x_min":46,"x_max":693,"o":"m 382 924 q 667 857 560 924 q 683 746 683 803 q 560 410 683 583 q 257 126 438 236 l 257 114 l 693 157 l 693 0 l 56 0 l 46 93 q 303 342 196 164 q 410 671 410 519 q 336 833 410 789 l 125 690 l 53 840 q 199 903 128 882 q 382 924 271 924 z "},"3":{"ha":797,"x_min":65,"x_max":742,"o":"m 421 679 q 336 833 421 782 l 139 690 l 67 840 q 208 904 144 885 q 382 924 272 924 q 667 857 560 924 q 679 785 679 819 q 542 521 679 650 q 629 510 590 521 q 713 391 685 456 q 742 228 742 326 q 662 31 742 96 q 403 -33 582 -33 q 65 53 224 -33 l 132 178 q 479 72 285 79 q 500 268 500 150 q 479 422 500 386 q 315 353 393 400 l 279 399 l 299 417 q 390 547 360 475 q 421 679 421 619 z "},"4":{"ha":800,"x_min":103,"x_max":744,"o":"m 243 260 q 378 251 307 251 q 517 261 450 251 l 503 472 l 744 489 l 692 -6 l 538 -21 l 526 128 q 431 126 506 126 q 265 150 357 126 q 126 211 174 174 q 103 404 103 311 q 189 737 103 586 q 389 944 275 888 l 643 775 q 360 547 476 692 q 243 260 243 403 z "},"5":{"ha":797,"x_min":65,"x_max":742,"o":"m 549 521 q 629 510 594 521 q 713 391 685 456 q 742 228 742 326 q 662 31 742 96 q 403 -33 582 -33 q 65 53 224 -33 l 132 178 q 479 72 285 79 q 500 268 500 150 q 479 422 500 386 q 274 353 361 407 l 163 367 l 76 858 l 97 889 l 681 911 l 656 747 l 368 772 l 293 442 q 549 521 418 521 z "},"6":{"ha":797,"x_min":86,"x_max":728,"o":"m 276 92 q 380 63 336 63 q 465 72 424 63 q 486 268 486 150 q 465 422 486 386 q 276 92 324 374 m 532 524 q 615 510 575 524 q 699 391 671 456 q 728 228 728 326 q 660 30 728 93 q 421 -33 593 -33 q 242 -8 326 -33 q 110 57 158 17 q 86 288 86 174 q 178 690 86 515 q 389 944 269 865 l 643 775 q 263 326 350 588 l 279 317 q 387 471 321 418 q 532 524 453 524 z "},"7":{"ha":708,"x_min":21,"x_max":639,"o":"m 21 911 l 618 889 l 639 858 l 404 -6 l 251 -19 l 304 769 l 46 747 l 21 911 z "},"8":{"ha":857,"x_min":76,"x_max":781,"o":"m 76 236 q 206 467 76 379 q 178 476 186 472 q 100 681 100 578 q 421 924 100 924 q 679 879 558 924 q 757 675 757 778 q 644 468 757 550 l 697 450 q 781 229 781 343 q 436 -33 781 -33 q 160 15 286 -33 q 76 236 76 122 m 307 206 q 329 92 307 140 q 447 56 379 56 q 539 243 539 129 q 483 424 539 357 q 404 429 449 429 q 307 206 307 351 m 556 700 q 533 801 556 754 q 408 833 481 833 q 311 660 311 767 q 327 576 311 619 q 371 507 343 533 q 454 501 408 501 q 556 700 556 572 z "},"9":{"ha":797,"x_min":86,"x_max":728,"o":"m 538 799 q 434 828 478 828 q 349 818 390 828 q 328 622 328 740 q 349 468 328 504 q 542 726 542 503 q 538 799 542 758 m 285 367 q 199 381 250 367 q 115 499 143 435 q 86 663 86 564 q 153 860 86 797 q 393 924 221 924 q 572 899 488 924 q 704 833 656 874 q 728 603 728 717 q 627 184 728 375 q 407 -86 526 -7 l 171 74 q 355 235 268 136 q 500 443 442 335 l 490 449 q 285 367 397 367 z "}," ":{"ha":417,"x_min":0,"x_max":0,"o":""},"!":{"ha":532,"x_min":139,"x_max":449,"o":"m 177 17 q 158 36 177 17 q 139 108 139 56 q 177 199 139 161 q 268 238 215 238 q 359 199 321 238 q 397 108 397 161 q 359 17 397 56 q 268 -21 321 -21 q 177 17 215 -21 m 411 949 l 449 893 l 326 326 l 203 314 l 160 904 l 411 949 z "},"\"":{"ha":628,"x_min":56,"x_max":572,"o":"m 108 638 l 56 1008 l 253 1025 l 214 642 l 108 638 m 428 638 l 375 1008 l 572 1025 l 533 642 l 428 638 z "},"#":{"ha":1103,"x_min":69,"x_max":1033,"o":"m 543 -94 l 618 179 l 325 179 l 224 -126 l 126 -94 l 201 179 l 69 179 l 89 294 l 236 300 l 304 549 l 111 540 l 131 693 l 344 693 l 438 1026 l 593 983 l 496 693 l 761 693 l 854 1026 l 1010 983 l 913 693 l 1033 693 l 1013 578 l 872 572 l 789 324 l 992 332 l 971 179 l 742 179 l 640 -126 l 543 -94 m 450 554 l 367 306 l 657 318 l 726 565 l 450 554 z "},"$":{"ha":797,"x_min":113,"x_max":725,"o":"m 200 533 q 339 807 200 675 l 319 1040 l 458 1040 l 446 896 q 557 972 482 922 l 725 747 q 551 651 617 710 q 485 529 485 593 q 517 387 485 485 q 550 247 550 289 q 440 53 550 132 l 458 -156 l 319 -156 l 332 -6 q 142 -62 260 -36 l 113 28 q 306 221 306 82 q 279 306 306 256 q 226 415 253 356 q 200 533 200 474 z "},"%":{"ha":1104,"x_min":42,"x_max":1061,"o":"m 342 -94 l 653 1026 l 781 997 l 411 -112 l 342 -94 m 251 369 q 88 425 165 369 q 42 647 42 540 q 131 931 42 835 q 242 950 193 950 q 404 894 329 950 q 453 672 453 778 q 367 393 453 486 q 251 369 303 369 m 156 517 q 161 453 156 481 q 213 447 183 447 q 305 612 272 515 q 338 803 338 708 q 332 868 338 840 q 283 872 307 872 q 190 706 224 803 q 156 517 156 608 m 860 -19 q 696 36 774 -19 q 650 258 650 151 q 739 542 650 446 q 850 561 801 561 q 1013 506 938 561 q 1061 283 1061 389 q 975 4 1061 97 q 860 -19 911 -19 m 764 128 q 769 64 764 92 q 821 58 792 58 q 913 223 881 126 q 946 414 946 319 q 940 479 946 451 q 892 483 915 483 q 798 317 832 414 q 764 128 764 219 z "},"&":{"ha":854,"x_min":97,"x_max":896,"o":"m 506 -18 l 458 -19 q 260 6 351 -19 q 121 71 169 31 q 97 301 97 182 q 168 685 97 506 q 386 972 239 865 l 654 803 q 336 469 449 671 l 896 492 l 892 399 l 744 382 q 626 -290 711 182 l 535 -303 l 506 -18 m 238 111 q 378 96 314 96 q 493 104 443 96 l 467 350 l 274 328 q 238 111 238 217 z "},"'":{"ha":308,"x_min":56,"x_max":253,"o":"m 108 638 l 56 1008 l 253 1025 l 214 642 l 108 638 z "},"(":{"ha":556,"x_min":111,"x_max":514,"o":"m 111 481 q 282 1025 111 765 l 514 982 q 257 382 257 692 q 403 -111 257 146 l 319 -136 q 111 481 111 161 z "},")":{"ha":556,"x_min":42,"x_max":444,"o":"m 299 382 q 42 982 299 692 l 274 1025 q 444 481 444 765 q 235 -136 444 160 l 153 -111 q 299 382 299 146 z "},"*":{"ha":793,"x_min":97,"x_max":696,"o":"m 474 968 l 444 754 l 601 888 l 696 750 l 496 668 l 690 600 l 618 449 l 449 579 l 486 379 l 319 365 l 347 578 l 192 446 l 97 583 l 296 664 l 103 733 l 175 885 l 343 751 l 307 954 l 474 968 z "},"+":{"ha":850,"x_min":125,"x_max":725,"o":"m 501 513 l 725 513 l 711 397 l 501 383 l 501 136 l 386 150 l 371 375 l 125 360 l 139 513 l 363 513 l 349 736 l 501 722 l 501 513 z "},",":{"ha":397,"x_min":69,"x_max":328,"o":"m 194 -6 q 143 -21 175 -21 q 90 14 111 -21 q 69 112 69 49 q 96 206 69 175 q 198 238 122 238 q 318 193 274 238 q 328 76 328 143 q 206 -254 328 -143 l 101 -171 q 200 -8 182 -104 l 194 -6 z "},"-":{"ha":618,"x_min":97,"x_max":521,"o":"m 521 510 l 521 381 l 97 315 l 104 510 l 521 510 z "},".":{"ha":397,"x_min":69,"x_max":328,"o":"m 101 20 q 85 37 101 20 q 69 108 69 54 q 101 197 69 163 q 199 231 132 231 q 297 197 265 231 q 328 108 328 163 q 297 20 328 54 q 199 -14 265 -14 q 101 20 132 -14 z "},"/":{"ha":689,"x_min":111,"x_max":578,"o":"m 111 -94 l 422 1026 l 578 983 l 208 -126 l 111 -94 z "},":":{"ha":397,"x_min":69,"x_max":332,"o":"m 105 484 q 89 501 105 484 q 74 572 74 518 q 105 660 74 626 q 203 694 136 694 q 301 660 269 694 q 332 572 332 626 q 301 484 332 518 q 203 450 269 450 q 105 484 136 450 m 101 20 q 85 37 101 20 q 69 108 69 54 q 101 197 69 163 q 199 231 132 231 q 297 197 265 231 q 328 108 328 163 q 297 20 328 54 q 199 -14 265 -14 q 101 20 132 -14 z "},";":{"ha":397,"x_min":69,"x_max":332,"o":"m 194 -6 q 143 -21 175 -21 q 90 14 111 -21 q 69 112 69 49 q 96 206 69 175 q 198 238 122 238 q 318 193 274 238 q 328 76 328 143 q 206 -254 328 -143 l 101 -171 q 200 -8 182 -104 l 194 -6 m 105 484 q 89 501 105 484 q 74 572 74 518 q 105 660 74 626 q 203 694 136 694 q 301 660 269 694 q 332 572 332 626 q 301 484 332 518 q 203 450 269 450 q 105 484 136 450 z "},"<":{"ha":850,"x_min":146,"x_max":731,"o":"m 711 688 l 318 432 l 731 240 l 650 108 l 146 389 l 146 510 l 678 772 l 711 688 z "},"=":{"ha":850,"x_min":125,"x_max":725,"o":"m 711 536 l 125 499 l 139 651 l 725 651 l 711 536 m 139 336 l 725 374 l 711 221 l 125 221 l 139 336 z "},">":{"ha":850,"x_min":119,"x_max":704,"o":"m 139 193 l 532 449 l 119 640 l 200 772 l 704 492 l 704 371 l 172 108 l 139 193 z "},"?":{"ha":565,"x_min":58,"x_max":538,"o":"m 177 17 q 158 36 177 17 q 139 108 139 56 q 177 199 139 161 q 268 238 215 238 q 359 199 321 238 q 397 108 397 161 q 359 17 397 56 q 268 -21 321 -21 q 177 17 215 -21 m 358 729 q 107 682 210 729 l 58 922 q 240 949 144 949 q 409 930 336 949 q 518 882 482 911 q 538 728 538 804 q 451 481 538 590 q 261 319 364 371 l 182 417 q 322 563 285 486 q 358 729 358 640 z "},"@":{"ha":1388,"x_min":96,"x_max":1292,"o":"m 1011 165 q 1122 231 1079 165 q 1165 409 1165 296 q 1142 600 1165 522 q 1068 741 1118 678 q 928 839 1018 804 q 724 874 839 874 q 523 844 608 874 q 381 766 438 815 q 289 647 325 717 q 222 336 222 517 q 318 15 222 140 q 457 -87 368 -50 q 667 -124 546 -124 q 986 0 832 -124 l 1043 -86 q 663 -217 863 -217 q 403 -172 515 -217 q 225 -47 290 -126 q 96 338 96 107 q 188 700 96 546 q 307 839 236 781 q 485 931 378 897 q 731 965 592 965 q 983 922 871 965 q 1161 803 1096 879 q 1292 422 1292 650 q 1267 269 1292 335 q 1209 170 1243 204 q 1129 115 1175 136 q 980 85 1063 85 q 842 138 897 85 q 775 286 786 192 l 765 286 q 529 103 693 103 q 427 200 468 103 q 386 418 386 297 q 438 592 386 539 q 606 646 489 646 q 807 592 722 646 l 906 661 l 947 629 l 925 311 q 925 263 924 300 q 945 195 926 225 q 1011 165 964 165 m 643 586 q 571 569 610 586 q 564 440 564 496 q 574 303 564 385 q 596 190 583 221 q 694 268 644 201 q 758 554 758 351 q 643 586 713 586 z "},"A":{"ha":888,"x_min":42,"x_max":818,"o":"m 42 0 l 301 924 l 638 903 l 818 0 l 693 -21 l 597 210 l 228 179 l 181 -21 l 42 0 m 363 749 l 253 286 l 567 283 l 374 749 l 363 749 z "},"B":{"ha":975,"x_min":136,"x_max":875,"o":"m 136 875 q 520 938 340 938 q 807 871 700 938 q 831 735 831 800 q 706 496 831 589 q 830 357 785 435 q 875 213 875 279 q 774 33 875 103 q 457 -36 672 -36 q 215 -19 335 -36 l 136 875 m 364 83 q 510 63 440 63 q 601 71 579 63 q 650 267 650 168 q 604 438 650 367 q 394 371 521 400 l 364 83 m 606 686 q 586 777 606 731 q 532 847 567 824 q 443 831 500 847 l 403 450 q 551 553 496 488 q 606 686 606 619 z "},"C":{"ha":697,"x_min":97,"x_max":697,"o":"m 371 101 q 650 151 517 101 l 697 1 q 468 -33 585 -33 q 260 -8 351 -33 q 121 57 169 17 q 97 288 97 174 q 185 708 97 519 q 386 972 272 897 l 654 803 q 350 492 463 681 q 238 111 238 303 q 371 101 297 101 z "},"D":{"ha":908,"x_min":136,"x_max":867,"o":"m 136 875 q 523 940 340 940 q 821 885 706 940 q 867 650 867 772 q 787 335 867 485 q 555 85 707 185 q 215 -19 403 -14 l 136 875 m 619 556 q 590 736 619 657 q 504 847 560 815 q 443 838 479 847 l 367 97 q 556 277 492 149 q 619 556 619 406 z "},"E":{"ha":840,"x_min":129,"x_max":743,"o":"m 738 0 l 194 -12 l 129 903 l 742 922 l 738 829 l 444 794 l 408 507 l 704 510 l 711 385 l 397 408 l 360 99 l 743 143 l 738 0 z "},"F":{"ha":797,"x_min":129,"x_max":742,"o":"m 669 343 l 392 365 l 347 -6 l 194 -12 l 129 903 l 742 922 l 738 829 l 444 794 l 404 465 l 663 468 l 669 343 z "},"G":{"ha":800,"x_min":97,"x_max":758,"o":"m 458 -19 q 260 6 351 -19 q 121 71 169 31 q 97 301 97 182 q 168 685 97 506 q 386 972 239 865 l 654 803 q 350 492 463 681 q 238 111 238 303 q 388 96 314 96 q 522 110 463 96 l 494 414 l 758 431 l 675 -58 l 539 -69 l 533 -15 q 458 -19 496 -19 z "},"H":{"ha":1068,"x_min":136,"x_max":950,"o":"m 713 -22 l 681 342 l 388 318 l 354 -6 l 215 -19 l 136 903 l 453 924 l 400 425 l 674 422 l 633 900 l 950 921 l 851 -8 l 713 -22 z "},"I":{"ha":599,"x_min":136,"x_max":467,"o":"m 215 -19 l 136 903 l 467 924 l 368 -6 l 215 -19 z "},"J":{"ha":585,"x_min":-11,"x_max":481,"o":"m 165 -33 q -11 14 81 -33 l 14 89 q 110 69 75 69 q 210 194 210 69 q 150 903 210 214 l 481 924 l 403 196 q 165 -33 378 -33 z "},"K":{"ha":946,"x_min":136,"x_max":918,"o":"m 868 829 l 575 522 l 918 1 l 624 -19 l 436 376 l 406 344 l 368 -6 l 215 -19 l 136 903 l 467 924 l 422 504 l 744 924 l 868 829 z "},"L":{"ha":701,"x_min":129,"x_max":715,"o":"m 710 0 l 194 -12 l 129 903 l 460 924 l 360 100 l 715 143 l 710 0 z "},"M":{"ha":1304,"x_min":111,"x_max":1193,"o":"m 1068 -21 l 869 718 l 858 718 l 707 0 l 582 -21 l 281 664 l 272 664 l 250 0 l 111 -7 l 176 903 l 513 917 l 653 256 l 815 924 l 1151 903 l 1193 0 l 1068 -21 z "},"N":{"ha":961,"x_min":111,"x_max":892,"o":"m 892 917 l 832 0 l 707 -21 l 257 724 l 246 724 l 250 0 l 111 -7 l 149 903 l 485 924 l 728 231 l 739 231 l 753 910 l 892 917 z "},"O":{"ha":818,"x_min":83,"x_max":749,"o":"m 749 288 q 735 147 749 203 q 685 47 721 90 q 416 -33 615 -33 q 107 57 217 -33 q 83 288 83 174 q 170 700 83 518 q 372 958 257 882 q 642 709 535 892 q 749 288 749 526 m 581 350 q 510 717 581 564 q 299 431 375 593 q 224 111 224 268 q 336 101 271 101 q 556 133 464 101 q 581 350 581 242 z "},"P":{"ha":874,"x_min":136,"x_max":860,"o":"m 136 875 q 529 938 331 938 q 835 871 728 938 q 860 728 860 796 q 728 460 860 568 q 388 306 596 353 l 354 -6 l 215 -19 l 136 875 m 592 688 q 504 847 592 794 q 443 838 479 847 l 397 400 q 540 529 488 450 q 592 688 592 608 z "},"Q":{"ha":818,"x_min":83,"x_max":749,"o":"m 749 288 q 713 88 749 160 q 583 -12 678 15 l 739 -211 l 489 -229 l 410 -33 q 107 57 213 -32 q 83 288 83 174 q 170 700 83 518 q 372 958 257 882 q 642 709 535 892 q 749 288 749 526 m 581 350 q 510 717 581 564 q 299 431 375 593 q 224 111 224 268 q 336 101 271 101 q 556 133 464 101 q 581 350 581 242 z "},"R":{"ha":975,"x_min":136,"x_max":906,"o":"m 432 353 q 392 344 407 344 l 354 -6 l 215 -19 l 136 875 q 331 918 210 899 q 564 938 453 938 q 849 871 742 938 q 874 733 874 796 q 672 444 874 558 l 906 1 l 808 -53 l 432 353 m 606 696 q 518 847 606 794 q 443 833 485 847 l 401 433 q 551 549 497 476 q 606 696 606 622 z "},"S":{"ha":599,"x_min":68,"x_max":531,"o":"m 68 611 q 276 972 68 807 l 531 803 q 358 574 358 694 q 393 465 358 522 q 463 353 428 408 q 499 249 499 297 q 221 -62 499 47 l 154 28 q 249 100 222 65 q 275 176 275 135 q 242 270 275 218 q 172 365 210 322 q 101 475 133 408 q 68 611 68 542 z "},"T":{"ha":786,"x_min":56,"x_max":765,"o":"m 56 904 l 765 924 l 761 831 l 567 811 l 481 -6 l 328 -19 l 258 781 l 64 761 l 56 904 z "},"U":{"ha":967,"x_min":104,"x_max":849,"o":"m 475 -33 q 270 43 351 -33 q 171 288 189 119 l 104 903 l 435 924 q 378 233 378 254 q 529 75 378 75 q 647 117 599 75 q 697 265 696 160 l 710 910 l 849 917 l 807 264 q 475 -33 789 -33 z "},"V":{"ha":832,"x_min":21,"x_max":790,"o":"m 339 924 l 451 226 l 464 226 l 665 924 l 790 890 l 489 0 l 364 -21 l 21 886 l 339 924 z "},"W":{"ha":1282,"x_min":40,"x_max":1226,"o":"m 358 924 l 454 224 l 465 224 l 675 882 l 786 849 l 931 218 l 942 218 l 1101 924 l 1226 890 l 981 0 l 856 -21 l 643 447 l 485 0 l 332 -21 l 40 886 l 358 924 z "},"X":{"ha":876,"x_min":42,"x_max":835,"o":"m 42 18 l 311 449 l 69 885 l 390 924 l 513 581 l 671 924 l 831 886 l 561 457 l 835 21 l 514 -19 l 364 332 l 201 -21 l 42 18 z "},"Y":{"ha":775,"x_min":6,"x_max":754,"o":"m 318 924 l 429 421 l 442 421 l 642 919 l 754 889 l 515 326 l 463 -6 l 324 -19 l 281 290 l 6 886 l 318 924 z "},"Z":{"ha":778,"x_min":28,"x_max":722,"o":"m 76 917 l 703 903 l 722 758 l 181 94 l 699 143 l 707 0 l 28 -12 l 32 81 l 411 790 l 81 824 l 76 917 z "},"[":{"ha":592,"x_min":139,"x_max":550,"o":"m 550 861 l 365 861 l 293 22 l 522 -6 l 536 -75 l 211 -146 l 139 936 l 550 997 l 550 861 z "},"\\":{"ha":689,"x_min":111,"x_max":578,"o":"m 267 1026 l 578 -94 l 481 -126 l 111 983 l 267 1026 z "},"]":{"ha":592,"x_min":42,"x_max":453,"o":"m 42 861 l 42 997 l 453 936 l 381 -146 l 56 -75 l 69 -6 l 299 22 l 226 861 l 42 861 z "},"^":{"ha":850,"x_min":146,"x_max":699,"o":"m 614 503 l 414 757 l 278 483 l 146 564 l 371 929 l 492 929 l 699 536 l 614 503 z "},"_":{"ha":799,"x_min":56,"x_max":743,"o":"m 724 -136 l 56 -174 l 75 -21 l 743 -21 l 724 -136 z "},"`":{"ha":608,"x_min":153,"x_max":483,"o":"m 236 1046 l 483 876 l 436 782 l 153 872 l 236 1046 z "},"a":{"ha":806,"x_min":49,"x_max":721,"o":"m 188 -32 q 153 -31 164 -32 q 77 65 106 1 q 49 196 49 128 q 116 325 49 285 q 364 365 183 365 q 503 356 431 365 l 500 386 q 447 474 494 442 q 326 507 400 507 q 179 461 253 507 l 118 663 q 390 711 238 711 q 632 642 543 711 q 721 428 721 574 q 718 375 721 394 l 679 -8 l 542 -21 l 521 181 l 510 181 q 379 24 463 81 q 188 -32 296 -32 m 508 297 l 435 299 q 285 289 343 299 q 265 219 265 250 q 274 161 265 189 q 292 124 282 133 q 508 297 458 150 z "},"b":{"ha":924,"x_min":97,"x_max":808,"o":"m 646 726 q 696 718 671 726 q 777 538 746 658 q 808 288 808 418 q 735 43 808 119 q 467 -33 663 -33 q 163 39 307 -33 l 97 949 l 394 994 l 344 438 l 357 438 q 488 649 413 571 q 646 726 564 726 m 311 60 q 418 56 349 56 q 553 72 488 56 q 574 274 574 179 q 565 450 574 369 q 546 561 557 531 q 311 60 368 490 z "},"c":{"ha":639,"x_min":69,"x_max":608,"o":"m 315 88 q 567 133 449 88 l 608 -1 q 404 -33 511 -33 q 215 -10 297 -33 q 90 49 133 13 q 69 235 69 149 q 148 550 69 408 q 329 749 226 692 l 569 592 q 294 367 394 497 q 194 96 194 238 q 315 88 253 88 z "},"d":{"ha":974,"x_min":115,"x_max":876,"o":"m 285 -32 q 229 -21 251 -32 q 147 136 178 32 q 115 368 115 240 q 180 611 115 533 q 404 689 244 689 q 600 650 503 689 l 579 949 l 876 994 l 788 -8 l 650 -21 l 632 218 l 621 218 q 285 -32 514 -32 m 458 606 q 371 586 407 606 q 351 379 351 486 q 379 81 351 157 q 522 176 447 92 q 587 303 561 221 q 613 490 613 385 q 610 556 613 511 q 458 606 547 606 z "},"e":{"ha":742,"x_min":69,"x_max":665,"o":"m 329 749 q 665 414 665 614 q 606 263 665 310 q 388 217 547 217 q 221 232 286 217 q 194 96 194 167 q 336 88 257 88 q 608 133 481 88 l 650 -1 q 422 -33 549 -33 q 92 49 197 -33 q 69 235 69 147 q 147 550 69 410 q 329 749 224 690 m 249 297 q 340 296 267 296 q 507 315 413 296 q 511 368 511 342 q 465 528 511 451 q 249 297 328 436 z "},"f":{"ha":599,"x_min":28,"x_max":557,"o":"m 457 1042 l 508 804 q 328 653 381 760 l 557 665 l 553 572 l 415 551 l 347 -8 l 210 -21 l 154 513 l 36 494 l 28 638 l 153 643 q 251 928 164 829 q 457 1042 339 1028 z "},"g":{"ha":1000,"x_min":115,"x_max":903,"o":"m 458 607 q 371 588 407 607 q 351 392 351 493 q 360 213 351 290 q 379 108 368 136 q 521 199 446 121 q 587 319 561 240 q 613 497 613 397 q 610 558 613 514 q 458 607 546 607 m 560 -306 q 274 -208 421 -306 l 313 -139 q 517 -193 436 -193 q 637 -150 599 -193 q 675 -35 675 -107 q 646 272 675 -12 l 635 272 q 285 -4 532 -4 q 229 7 251 -4 q 147 158 178 58 q 115 381 115 257 q 180 615 115 540 q 404 689 244 689 q 606 633 521 689 l 636 674 l 903 714 l 807 -62 q 729 -240 793 -175 q 560 -306 665 -306 z "},"h":{"ha":924,"x_min":97,"x_max":825,"o":"m 651 726 q 701 718 676 726 q 799 420 772 632 q 825 0 825 208 l 575 -21 q 551 561 575 299 q 306 -8 367 493 l 168 -21 l 97 949 l 394 994 l 343 422 l 356 422 q 490 644 413 563 q 651 726 567 726 z "},"i":{"ha":492,"x_min":97,"x_max":394,"o":"m 168 -21 l 97 667 l 394 713 l 306 -8 l 168 -21 m 141 822 q 122 841 141 822 q 103 913 103 860 q 141 1003 103 965 q 232 1042 179 1042 q 323 1003 285 1042 q 361 913 361 965 q 323 822 361 860 q 232 783 285 783 q 141 822 179 783 z "},"j":{"ha":492,"x_min":-72,"x_max":394,"o":"m 141 822 q 122 841 141 822 q 103 913 103 860 q 141 1003 103 965 q 232 1042 179 1042 q 323 1003 285 1042 q 361 913 361 965 q 323 822 361 860 q 232 783 285 783 q 141 822 179 783 m 94 -187 q -72 -125 6 -187 l -31 -54 q 63 -83 11 -83 q 161 39 161 -83 q 97 667 161 53 l 394 711 l 306 -7 q 94 -187 283 -187 z "},"k":{"ha":831,"x_min":97,"x_max":817,"o":"m 731 672 l 515 447 l 817 -3 l 553 -21 l 379 304 l 329 257 l 306 -8 l 168 -21 l 97 949 l 394 994 l 342 394 l 638 744 l 731 672 z "},"l":{"ha":492,"x_min":97,"x_max":394,"o":"m 168 -21 l 97 949 l 394 994 l 306 -8 l 168 -21 z "},"m":{"ha":1292,"x_min":90,"x_max":1193,"o":"m 615 726 q 667 718 642 726 q 754 476 721 651 l 765 476 q 881 660 815 593 q 1018 726 947 726 q 1069 718 1044 726 q 1167 417 1140 632 q 1193 -8 1193 201 l 943 -21 q 922 561 943 307 q 701 -8 756 494 l 540 -21 q 519 561 540 307 q 398 428 457 536 q 311 93 339 321 l 299 -8 l 161 -21 l 90 668 l 388 714 l 361 497 l 371 497 q 615 726 478 726 z "},"n":{"ha":917,"x_min":90,"x_max":818,"o":"m 643 726 q 694 718 669 726 q 792 420 765 632 q 818 0 818 208 l 568 -21 q 544 561 568 299 q 299 -8 360 493 l 161 -21 l 90 668 l 388 714 l 357 469 l 369 469 q 496 658 425 590 q 643 726 567 726 z "},"o":{"ha":747,"x_min":69,"x_max":678,"o":"m 678 256 q 612 35 678 104 q 368 -33 546 -33 q 90 47 190 -33 q 69 247 69 147 q 98 435 69 347 q 169 586 126 524 q 331 749 260 714 q 565 564 464 681 q 678 256 678 436 m 517 293 q 461 535 517 425 q 271 349 346 474 q 196 96 196 224 q 324 88 240 88 q 494 117 407 88 q 517 293 517 201 z "},"p":{"ha":940,"x_min":111,"x_max":825,"o":"m 661 726 q 713 718 688 726 q 794 538 763 658 q 825 270 825 418 q 760 44 825 122 q 536 -33 696 -33 q 321 14 422 -33 l 283 -289 l 154 -301 l 111 668 l 408 714 l 378 469 l 388 469 q 514 658 443 589 q 661 726 585 726 m 482 53 q 569 72 533 53 q 590 274 590 179 q 582 450 590 369 q 563 561 574 531 q 517 541 532 549 q 468 502 501 533 q 414 428 435 471 q 332 103 358 311 q 482 53 394 53 z "},"q":{"ha":1000,"x_min":115,"x_max":903,"o":"m 285 -32 q 229 -21 251 -32 q 147 136 178 32 q 115 368 115 240 q 180 611 115 533 q 404 689 244 689 q 606 633 521 689 l 636 674 l 903 714 l 778 -289 l 649 -301 l 625 206 l 615 206 q 285 -32 508 -32 m 458 606 q 371 586 407 606 q 351 379 351 486 q 379 81 351 157 q 522 176 447 92 q 587 303 561 221 q 613 490 613 385 q 610 556 613 511 q 458 606 547 606 z "},"r":{"ha":653,"x_min":90,"x_max":653,"o":"m 532 457 q 389 391 438 457 q 318 149 340 325 l 299 -8 l 161 -21 l 90 668 l 388 714 l 360 492 l 369 492 q 653 746 481 731 l 614 450 q 532 457 563 457 z "},"s":{"ha":582,"x_min":83,"x_max":499,"o":"m 83 457 q 271 782 83 635 l 499 629 q 344 422 344 531 q 408 274 344 365 q 471 131 471 182 q 221 -150 471 -51 l 160 -68 q 269 64 269 -8 q 176 236 269 132 q 113 335 142 275 q 83 457 83 394 z "},"t":{"ha":599,"x_min":14,"x_max":571,"o":"m 210 -21 l 150 540 l 22 522 l 14 665 l 136 671 l 115 865 l 461 911 l 433 686 l 571 693 l 567 600 l 419 579 l 347 -8 l 210 -21 z "},"u":{"ha":958,"x_min":90,"x_max":861,"o":"m 491 163 q 516 196 491 163 q 561 307 542 229 q 581 442 581 385 q 564 667 581 500 l 861 713 l 772 -8 l 635 -21 l 607 243 l 597 243 q 269 -32 494 -32 q 214 -21 236 -32 q 117 272 143 65 q 90 683 90 478 l 368 704 q 343 340 343 461 q 364 81 343 219 q 491 163 440 97 z "},"v":{"ha":775,"x_min":42,"x_max":733,"o":"m 339 713 l 431 181 l 442 181 l 621 708 l 733 678 l 463 -3 l 350 -21 l 42 667 l 339 713 z "},"w":{"ha":1150,"x_min":42,"x_max":1108,"o":"m 328 710 l 414 169 l 425 169 l 613 663 l 713 632 l 840 165 l 851 165 l 996 700 l 1108 669 l 888 -3 l 775 -21 l 572 304 l 442 -3 l 304 -21 l 42 667 l 328 710 z "},"x":{"ha":750,"x_min":42,"x_max":708,"o":"m 42 0 l 254 322 l 56 667 l 353 708 l 444 457 l 569 708 l 696 678 l 483 356 l 708 0 l 411 -31 l 296 228 l 168 -31 l 42 0 z "},"y":{"ha":786,"x_min":42,"x_max":744,"o":"m 443 -81 q 342 -248 394 -201 q 205 -294 290 -294 q 42 -232 119 -294 l 83 -161 q 184 -178 129 -178 q 283 -142 239 -178 q 340 -32 328 -106 l 53 667 l 350 713 l 442 179 l 453 179 l 632 708 l 744 678 l 443 -81 z "},"z":{"ha":778,"x_min":63,"x_max":688,"o":"m 106 707 l 669 694 l 688 550 l 222 90 l 653 142 l 661 0 l 63 -12 l 67 72 l 379 581 l 110 608 l 106 707 z "},"{":{"ha":592,"x_min":74,"x_max":550,"o":"m 319 343 l 300 68 q 322 7 300 28 q 390 -14 343 -14 q 524 1 436 -14 l 536 -75 q 324 -125 396 -125 q 229 -85 253 -125 q 199 47 206 -46 l 176 365 l 81 382 l 74 449 l 169 488 q 151 779 151 733 q 170 869 151 825 q 219 938 189 913 q 303 976 249 963 q 412 994 358 990 q 550 997 465 997 l 550 913 q 416 883 467 913 q 361 806 365 853 l 338 546 q 239 439 331 467 l 236 428 q 319 343 319 401 z "},"|":{"ha":494,"x_min":150,"x_max":344,"o":"m 192 -142 l 150 1026 l 344 1026 l 301 -142 l 192 -142 z "},"}":{"ha":592,"x_min":42,"x_max":518,"o":"m 292 68 l 272 343 q 356 428 272 401 l 353 439 q 254 546 261 467 l 231 806 q 176 883 226 853 q 42 913 125 913 l 42 997 q 180 994 126 997 q 288 976 233 990 q 372 938 343 963 q 440 761 440 881 q 422 488 440 733 l 518 449 l 511 382 l 415 365 l 393 47 q 363 -85 386 -46 q 267 -125 339 -125 q 56 -75 196 -125 l 68 1 q 203 -14 156 -14 q 292 68 292 -14 z "},"~":{"ha":850,"x_min":125,"x_max":725,"o":"m 711 406 q 593 438 658 438 q 423 376 528 438 q 246 315 318 315 q 125 360 174 315 l 135 517 q 253 474 186 474 q 417 513 319 474 q 587 553 515 553 q 725 506 658 553 l 711 406 z "}," ":{"ha":417,"x_min":0,"x_max":0,"o":""},"¡":{"ha":532,"x_min":139,"x_max":449,"o":"m 410 673 q 430 654 410 673 q 449 582 449 635 q 410 491 449 529 q 319 453 372 453 q 228 491 267 453 q 190 582 190 529 q 228 673 190 635 q 319 711 267 711 q 410 673 372 711 m 176 -258 l 139 -203 l 261 364 l 385 376 l 428 -214 l 176 -258 z "},"¢":{"ha":639,"x_min":69,"x_max":608,"o":"m 69 346 q 131 628 69 499 q 281 828 192 757 l 264 1040 l 403 1040 l 383 824 l 569 703 q 294 478 394 608 q 194 207 194 349 q 315 199 253 199 q 567 244 449 199 l 608 110 q 382 78 511 78 l 403 -156 l 264 -156 l 283 86 q 90 160 154 106 q 69 346 69 260 z "},"£":{"ha":878,"x_min":111,"x_max":794,"o":"m 253 282 q 239 382 253 324 l 111 374 l 125 485 l 210 485 q 163 746 163 640 q 181 857 163 804 q 465 924 288 924 q 648 903 576 924 q 794 840 719 882 l 722 690 l 511 833 q 453 767 469 807 q 438 658 438 728 q 435 485 438 588 l 642 485 l 628 411 l 428 396 q 303 96 407 193 l 307 86 l 768 157 l 776 0 l 153 0 l 157 64 q 253 282 253 144 z "},"¤":{"ha":942,"x_min":69,"x_max":872,"o":"m 711 654 q 761 481 761 586 q 711 308 761 376 l 872 179 l 774 81 l 640 246 q 471 208 572 208 q 301 246 369 208 l 168 81 l 69 179 l 231 308 q 181 481 181 376 q 231 656 181 586 l 69 785 l 168 883 l 301 717 q 471 756 368 756 q 640 717 574 756 l 774 883 l 872 785 l 711 654 m 497 658 q 379 617 408 658 q 350 443 350 576 q 368 325 350 375 q 443 304 399 304 q 560 344 532 304 q 589 518 589 385 q 572 639 589 586 q 497 658 542 658 z "},"¥":{"ha":775,"x_min":6,"x_max":754,"o":"m 318 924 l 429 421 l 442 421 l 642 919 l 754 889 l 593 513 l 722 513 l 706 439 l 558 431 l 514 325 l 504 263 l 694 263 l 678 189 l 492 178 l 463 -6 l 324 -19 l 297 165 l 58 151 l 75 263 l 285 263 l 281 290 l 225 410 l 86 401 l 103 513 l 178 513 l 6 886 l 318 924 z "},"¦":{"ha":494,"x_min":150,"x_max":344,"o":"m 344 1026 l 332 694 l 161 694 l 150 1026 l 344 1026 m 192 -142 l 176 267 l 317 267 l 301 -142 l 192 -142 z "},"§":{"ha":861,"x_min":79,"x_max":782,"o":"m 782 307 q 575 65 782 150 q 606 -74 606 0 q 457 -353 606 -214 l 150 -179 q 269 3 269 -96 q 240 99 269 50 q 174 183 210 147 q 109 272 139 218 q 79 383 79 325 q 285 622 79 533 q 254 763 254 686 q 406 1040 254 899 l 713 868 q 590 685 590 783 q 620 590 590 638 q 686 506 650 542 q 752 417 722 471 q 782 307 782 364 m 499 165 q 567 258 567 213 q 540 341 567 303 q 451 436 513 379 q 364 524 390 493 q 294 430 294 475 q 322 347 294 385 q 413 249 349 308 q 499 165 476 190 z "},"¨":{"ha":608,"x_min":53,"x_max":556,"o":"m 84 831 q 68 848 84 831 q 53 913 53 865 q 84 994 53 960 q 158 1029 115 1029 q 233 994 201 1029 q 264 913 264 960 q 233 831 264 865 q 158 796 201 796 q 84 831 115 796 m 376 831 q 360 848 376 831 q 344 913 344 865 q 376 994 344 960 q 450 1029 407 1029 q 524 994 493 1029 q 556 913 556 960 q 524 831 556 865 q 450 796 493 796 q 376 831 407 796 z "},"©":{"ha":1181,"x_min":139,"x_max":1069,"o":"m 639 1090 q 978 972 878 1090 q 1069 697 1069 864 q 933 310 1069 471 q 604 150 797 150 q 139 972 139 150 l 158 999 q 639 1090 435 1090 m 1014 697 q 926 942 1014 849 q 646 1035 838 1035 q 194 951 454 1035 q 604 206 200 206 q 894 349 774 206 q 1014 697 1014 493 m 508 449 q 603 444 532 444 q 751 474 674 444 l 782 378 q 635 356 714 356 q 429 413 496 356 q 415 550 415 481 q 469 802 415 689 q 593 963 524 915 l 761 857 q 578 672 646 783 q 508 449 510 561 z "},"ª":{"ha":567,"x_min":68,"x_max":474,"o":"m 154 536 q 133 538 140 536 q 86 596 104 557 q 68 683 68 635 q 109 756 68 731 q 258 781 150 781 q 336 776 308 781 q 308 834 336 813 q 239 856 281 856 q 146 826 197 856 l 107 956 q 276 985 186 985 q 420 942 367 985 q 474 810 474 899 q 449 550 474 792 l 360 543 l 349 647 l 340 647 q 263 566 311 596 q 154 536 214 536 m 447 411 l 69 374 l 83 485 l 461 485 l 447 411 m 339 731 q 284 733 319 733 q 215 728 249 733 q 206 682 206 711 q 217 636 206 653 q 339 731 313 654 z "},"«":{"ha":997,"x_min":97,"x_max":900,"o":"m 97 376 l 322 647 l 449 585 l 303 338 l 483 92 l 365 29 l 107 272 l 97 376 m 718 339 l 900 92 l 782 29 l 524 272 l 514 376 l 739 647 l 865 585 l 718 339 z "},"¬":{"ha":850,"x_min":111,"x_max":711,"o":"m 711 513 l 711 125 l 574 113 l 597 390 l 111 360 l 125 513 l 711 513 z "},"®":{"ha":1181,"x_min":139,"x_max":1069,"o":"m 639 1090 q 978 972 878 1090 q 1069 697 1069 864 q 933 310 1069 471 q 604 150 797 150 q 139 972 139 150 l 158 999 q 639 1090 435 1090 m 1014 697 q 926 942 1014 849 q 646 1035 838 1035 q 194 951 454 1035 q 604 206 200 206 q 894 349 774 206 q 1014 697 1014 493 m 707 640 q 846 379 788 493 l 783 342 l 558 585 l 539 581 l 518 372 l 426 364 l 381 901 q 622 940 500 940 q 811 901 744 940 q 826 815 826 857 q 707 640 826 708 m 546 643 q 629 711 599 669 q 660 799 660 753 q 608 879 660 846 q 569 872 593 879 l 546 643 z "},"¯":{"ha":531,"x_min":107,"x_max":479,"o":"m 469 849 l 107 811 l 117 976 l 479 976 l 469 849 z "},"°":{"ha":542,"x_min":69,"x_max":472,"o":"m 331 881 q 277 885 314 885 q 206 860 240 885 q 171 781 171 835 q 210 681 171 728 q 267 675 232 675 q 335 700 301 675 q 368 778 368 725 q 331 881 368 832 m 118 643 q 94 669 118 643 q 69 781 69 696 q 118 918 69 865 q 271 971 167 971 q 424 918 375 971 q 472 781 472 865 q 424 643 472 696 q 271 590 375 590 q 118 643 167 590 z "},"±":{"ha":850,"x_min":125,"x_max":725,"o":"m 501 624 l 725 624 l 711 508 l 501 494 l 501 247 l 386 261 l 371 486 l 125 471 l 139 624 l 363 624 l 349 847 l 501 833 l 501 624 m 711 22 l 125 -15 l 139 138 l 725 138 l 711 22 z "},"²":{"ha":565,"x_min":76,"x_max":475,"o":"m 81 922 q 283 978 178 978 q 460 933 389 978 q 471 869 471 906 q 408 679 471 776 q 246 514 344 582 l 246 504 q 475 528 449 526 l 475 417 l 82 417 l 76 483 q 228 632 165 525 q 290 829 290 739 q 258 906 290 886 q 198 865 243 896 q 131 819 153 833 l 81 922 z "},"³":{"ha":561,"x_min":71,"x_max":489,"o":"m 214 676 q 283 817 283 751 q 243 906 283 882 q 124 819 221 889 l 72 922 q 128 951 107 942 q 278 978 185 978 q 443 933 372 978 q 451 888 451 911 q 382 740 451 814 q 418 733 397 740 q 489 558 489 665 q 283 397 489 397 q 71 454 171 397 l 119 540 q 321 475 208 482 q 333 578 333 522 q 322 664 333 633 q 226 621 274 651 l 199 660 l 214 676 z "},"´":{"ha":608,"x_min":181,"x_max":511,"o":"m 181 876 l 428 1046 l 511 872 l 228 782 l 181 876 z "},"µ":{"ha":958,"x_min":90,"x_max":861,"o":"m 578 496 q 564 667 578 582 l 861 713 l 772 -8 l 635 -21 l 607 243 l 597 243 q 350 -22 514 19 l 350 -290 l 228 -318 q 90 683 90 225 l 350 704 l 350 74 q 519 210 460 99 q 578 496 578 321 z "},"¶":{"ha":878,"x_min":111,"x_max":753,"o":"m 321 364 q 242 376 275 364 q 147 488 183 415 q 111 653 111 561 q 178 901 111 822 q 418 979 246 979 q 597 948 513 979 q 729 867 681 917 q 753 579 753 721 q 660 56 753 292 q 450 -278 567 -181 l 196 -65 q 431 199 332 43 q 576 531 529 356 l 560 542 q 458 410 519 456 q 321 364 396 364 z "},"·":{"ha":397,"x_min":69,"x_max":328,"o":"m 101 312 q 85 329 101 312 q 69 400 69 346 q 101 488 69 454 q 199 522 132 522 q 297 488 265 522 q 328 400 328 454 q 297 312 328 346 q 199 278 265 278 q 101 312 132 278 z "},"¸":{"ha":639,"x_min":172,"x_max":533,"o":"m 219 -126 q 353 -162 303 -162 q 449 -144 404 -162 q 297 -8 411 -67 l 336 61 q 517 -83 482 -19 q 533 -150 533 -115 q 467 -256 533 -222 q 326 -289 401 -289 q 172 -260 250 -289 l 219 -126 z "},"¹":{"ha":478,"x_min":32,"x_max":367,"o":"m 325 979 l 367 963 l 308 414 l 201 404 l 178 794 q 133 763 168 788 q 83 726 97 738 l 32 831 l 325 979 z "},"º":{"ha":574,"x_min":83,"x_max":490,"o":"m 490 729 q 449 581 490 626 q 288 536 408 536 q 103 593 167 536 q 89 729 89 661 q 140 977 89 868 q 261 1131 192 1086 l 265 1132 q 426 983 363 1092 q 490 729 490 874 m 383 767 q 343 978 383 890 q 225 811 268 904 q 181 628 182 718 q 259 624 200 624 q 368 642 318 624 q 383 767 383 708 m 461 411 l 83 374 l 97 485 l 475 485 l 461 411 z "},"»":{"ha":997,"x_min":97,"x_max":900,"o":"m 900 300 l 675 29 l 549 92 l 694 339 l 514 585 l 632 647 l 890 404 l 900 300 m 279 338 l 97 585 l 215 647 l 474 404 l 483 300 l 258 29 l 132 92 l 279 338 z "},"¼":{"ha":1104,"x_min":60,"x_max":1047,"o":"m 324 -94 l 635 1026 l 763 997 l 393 -112 l 324 -94 m 353 951 l 394 935 l 336 386 l 229 376 l 206 767 q 160 735 196 760 q 111 699 125 710 l 60 803 l 353 951 m 750 168 q 815 165 772 165 q 893 169 858 165 l 886 294 l 1047 304 l 1014 -3 l 907 -14 l 900 75 q 667 126 731 75 q 650 247 650 193 q 703 448 650 357 q 828 574 757 539 l 993 464 q 822 332 893 415 q 750 168 751 249 z "},"½":{"ha":1104,"x_min":60,"x_max":1029,"o":"m 286 -94 l 597 1026 l 725 997 l 356 -112 l 286 -94 m 353 951 l 394 935 l 336 386 l 229 376 l 206 767 q 160 735 196 760 q 111 699 125 710 l 60 803 l 353 951 m 635 506 q 838 561 732 561 q 1014 517 943 561 q 1025 453 1025 489 q 962 263 1025 360 q 800 97 899 165 l 800 88 q 1029 111 1003 110 l 1029 0 l 636 0 l 631 67 q 782 215 719 108 q 844 413 844 322 q 813 489 844 469 q 752 448 797 479 q 685 403 707 417 l 635 506 z "},"¾":{"ha":1104,"x_min":43,"x_max":1047,"o":"m 363 -94 l 674 1026 l 801 997 l 432 -112 l 363 -94 m 186 649 q 256 789 256 724 q 215 878 256 854 q 96 792 193 861 l 44 894 q 100 924 79 914 q 251 950 157 950 q 415 906 344 950 q 424 860 424 883 q 354 713 424 786 q 390 706 369 713 q 461 531 461 638 q 256 369 461 369 q 43 426 143 369 l 92 513 q 293 447 181 454 q 306 550 306 494 q 294 636 306 606 q 199 593 246 624 l 171 632 l 186 649 m 750 168 q 815 165 772 165 q 893 169 858 165 l 886 294 l 1047 304 l 1014 -3 l 907 -14 l 900 75 q 667 126 731 75 q 650 247 650 193 q 703 448 650 357 q 828 574 757 539 l 993 464 q 822 332 893 415 q 750 168 751 249 z "},"¿":{"ha":565,"x_min":28,"x_max":507,"o":"m 388 673 q 407 654 388 673 q 426 582 426 635 q 388 491 426 529 q 297 453 350 453 q 206 491 244 453 q 168 582 168 529 q 206 673 168 635 q 297 711 244 711 q 388 673 350 711 m 207 -39 q 458 8 356 -39 l 507 -232 q 325 -258 421 -258 q 156 -240 229 -258 q 47 -192 83 -221 q 28 -37 28 -114 q 115 210 28 100 q 304 371 201 319 l 383 274 q 244 127 281 204 q 207 -39 207 50 z "},"À":{"ha":888,"x_min":42,"x_max":818,"o":"m 42 0 l 301 924 l 638 903 l 818 0 l 693 -21 l 597 210 l 228 179 l 181 -21 l 42 0 m 363 749 l 253 286 l 567 283 l 374 749 l 363 749 m 361 1254 l 608 1085 l 561 990 l 278 1081 l 361 1254 z "},"Á":{"ha":888,"x_min":42,"x_max":818,"o":"m 42 0 l 301 924 l 638 903 l 818 0 l 693 -21 l 597 210 l 228 179 l 181 -21 l 42 0 m 363 749 l 253 286 l 567 283 l 374 749 l 363 749 m 292 1085 l 539 1254 l 622 1081 l 339 990 l 292 1085 z "},"Â":{"ha":888,"x_min":42,"x_max":818,"o":"m 42 0 l 301 924 l 638 903 l 818 0 l 693 -21 l 597 210 l 228 179 l 181 -21 l 42 0 m 363 749 l 253 286 l 567 283 l 374 749 l 363 749 m 233 1061 l 394 1251 l 654 1124 l 550 999 l 444 1085 l 281 994 l 233 1061 z "},"Ã":{"ha":888,"x_min":42,"x_max":818,"o":"m 42 0 l 301 924 l 638 903 l 818 0 l 693 -21 l 597 210 l 228 179 l 181 -21 l 42 0 m 363 749 l 253 286 l 567 283 l 374 749 l 363 749 m 532 1176 q 592 1239 564 1176 l 675 1217 q 557 1021 650 1021 q 485 1039 535 1021 q 411 1057 436 1057 q 351 994 379 1057 l 268 1017 q 386 1213 293 1213 q 458 1194 408 1213 q 532 1176 507 1176 z "},"Ä":{"ha":888,"x_min":42,"x_max":818,"o":"m 42 0 l 301 924 l 638 903 l 818 0 l 693 -21 l 597 210 l 228 179 l 181 -21 l 42 0 m 363 749 l 253 286 l 567 283 l 374 749 l 363 749 m 223 1039 q 207 1056 223 1039 q 192 1121 192 1074 q 223 1203 192 1168 q 297 1238 254 1238 q 372 1203 340 1238 q 403 1121 403 1168 q 372 1039 403 1074 q 297 1004 340 1004 q 223 1039 254 1004 m 515 1039 q 499 1056 515 1039 q 483 1121 483 1074 q 515 1203 483 1168 q 589 1238 546 1238 q 663 1203 632 1238 q 694 1121 694 1168 q 663 1039 694 1074 q 589 1004 632 1004 q 515 1039 546 1004 z "},"Å":{"ha":888,"x_min":42,"x_max":818,"o":"m 42 0 l 301 924 l 638 903 l 818 0 l 693 -21 l 597 210 l 228 179 l 181 -21 l 42 0 m 363 749 l 253 286 l 567 283 l 374 749 l 363 749 m 571 1246 q 607 1119 607 1194 q 563 999 607 1044 q 447 954 519 954 q 311 979 375 954 q 275 1106 275 1031 q 319 1226 275 1181 q 434 1271 363 1271 q 571 1246 506 1271 m 501 1131 q 492 1193 501 1167 q 440 1204 478 1204 q 379 1093 379 1175 q 389 1031 379 1060 q 440 1021 403 1021 q 501 1131 501 1050 z "},"Æ":{"ha":1222,"x_min":42,"x_max":1125,"o":"m 1093 385 l 735 411 l 799 96 l 1125 143 l 1119 0 l 689 -12 l 597 210 l 228 179 l 181 -21 l 42 0 l 301 924 l 594 906 l 1124 922 l 1119 829 l 663 775 l 717 506 l 1086 510 l 1093 385 m 367 767 l 253 286 l 567 283 l 367 767 z "},"Ç":{"ha":697,"x_min":97,"x_max":697,"o":"m 371 101 q 238 111 297 101 q 350 492 238 303 q 654 803 463 681 l 386 972 q 185 708 272 897 q 97 288 97 519 q 121 57 97 174 q 260 -8 169 17 q 468 -33 351 -33 q 697 1 585 -33 l 650 151 q 371 101 517 101 m 215 -126 q 349 -162 299 -162 q 444 -144 400 -162 q 293 -8 407 -67 l 332 61 q 513 -83 478 -19 q 529 -150 529 -115 q 463 -256 529 -222 q 321 -289 397 -289 q 168 -260 244 -289 l 215 -126 z "},"È":{"ha":840,"x_min":129,"x_max":743,"o":"m 738 0 l 194 -12 l 129 903 l 742 922 l 738 829 l 444 794 l 408 507 l 704 510 l 711 385 l 397 408 l 360 99 l 743 143 l 738 0 m 338 1254 l 585 1085 l 538 990 l 254 1081 l 338 1254 z "},"É":{"ha":840,"x_min":129,"x_max":743,"o":"m 738 0 l 194 -12 l 129 903 l 742 922 l 738 829 l 444 794 l 408 507 l 704 510 l 711 385 l 397 408 l 360 99 l 743 143 l 738 0 m 268 1085 l 515 1254 l 599 1081 l 315 990 l 268 1085 z "},"Ê":{"ha":840,"x_min":129,"x_max":743,"o":"m 738 0 l 194 -12 l 129 903 l 742 922 l 738 829 l 444 794 l 408 507 l 704 510 l 711 385 l 397 408 l 360 99 l 743 143 l 738 0 m 210 1061 l 371 1251 l 631 1124 l 526 999 l 421 1085 l 257 994 l 210 1061 z "},"Ë":{"ha":840,"x_min":129,"x_max":743,"o":"m 738 0 l 194 -12 l 129 903 l 742 922 l 738 829 l 444 794 l 408 507 l 704 510 l 711 385 l 397 408 l 360 99 l 743 143 l 738 0 m 199 1039 q 184 1056 199 1039 q 168 1121 168 1074 q 199 1203 168 1168 q 274 1238 231 1238 q 348 1203 317 1238 q 379 1121 379 1168 q 348 1039 379 1074 q 274 1004 317 1004 q 199 1039 231 1004 m 491 1039 q 475 1056 491 1039 q 460 1121 460 1074 q 491 1203 460 1168 q 565 1238 522 1238 q 640 1203 608 1238 q 671 1121 671 1168 q 640 1039 671 1074 q 565 1004 608 1004 q 491 1039 522 1004 z "},"Ì":{"ha":599,"x_min":135,"x_max":467,"o":"m 215 -19 l 136 903 l 467 924 l 368 -6 l 215 -19 m 218 1254 l 465 1085 l 418 990 l 135 1081 l 218 1254 z "},"Í":{"ha":599,"x_min":136,"x_max":479,"o":"m 215 -19 l 136 903 l 467 924 l 368 -6 l 215 -19 m 149 1085 l 396 1254 l 479 1081 l 196 990 l 149 1085 z "},"Î":{"ha":599,"x_min":89,"x_max":510,"o":"m 215 -19 l 136 903 l 467 924 l 368 -6 l 215 -19 m 89 1061 l 250 1251 l 510 1124 l 406 999 l 300 1085 l 136 994 l 89 1061 z "},"Ï":{"ha":599,"x_min":49,"x_max":551,"o":"m 215 -19 l 136 903 l 467 924 l 368 -6 l 215 -19 m 80 1039 q 64 1056 80 1039 q 49 1121 49 1074 q 80 1203 49 1168 q 154 1238 111 1238 q 228 1203 197 1238 q 260 1121 260 1168 q 228 1039 260 1074 q 154 1004 197 1004 q 80 1039 111 1004 m 372 1039 q 356 1056 372 1039 q 340 1121 340 1074 q 372 1203 340 1168 q 446 1238 403 1238 q 520 1203 489 1238 q 551 1121 551 1168 q 520 1039 551 1074 q 446 1004 489 1004 q 372 1039 403 1004 z "},"Ð":{"ha":908,"x_min":28,"x_max":867,"o":"m 136 875 q 523 940 340 940 q 821 885 706 940 q 867 650 867 772 q 787 335 867 485 q 555 85 707 185 q 215 -19 403 -14 l 136 875 m 619 556 q 590 736 619 657 q 504 847 560 815 q 443 838 479 847 l 367 97 q 556 277 492 149 q 619 556 619 406 m 544 439 l 28 401 l 42 513 l 558 513 l 544 439 z "},"Ñ":{"ha":961,"x_min":111,"x_max":892,"o":"m 892 917 l 832 0 l 707 -21 l 257 724 l 246 724 l 250 0 l 111 -7 l 149 903 l 485 924 l 728 231 l 739 231 l 753 910 l 892 917 m 596 1176 q 656 1239 628 1176 l 739 1217 q 621 1021 714 1021 q 549 1039 599 1021 q 475 1057 500 1057 q 415 994 443 1057 l 332 1017 q 450 1213 357 1213 q 522 1194 472 1213 q 596 1176 571 1176 z "},"Ò":{"ha":818,"x_min":83,"x_max":749,"o":"m 749 288 q 735 147 749 203 q 685 47 721 90 q 416 -33 615 -33 q 107 57 217 -33 q 83 288 83 174 q 170 700 83 518 q 372 958 257 882 q 642 709 535 892 q 749 288 749 526 m 581 350 q 510 717 581 564 q 299 431 375 593 q 224 111 224 268 q 336 101 271 101 q 556 133 464 101 q 581 350 581 242 m 326 1254 l 574 1085 l 526 990 l 243 1081 l 326 1254 z "},"Ó":{"ha":818,"x_min":83,"x_max":749,"o":"m 749 288 q 735 147 749 203 q 685 47 721 90 q 416 -33 615 -33 q 107 57 217 -33 q 83 288 83 174 q 170 700 83 518 q 372 958 257 882 q 642 709 535 892 q 749 288 749 526 m 581 350 q 510 717 581 564 q 299 431 375 593 q 224 111 224 268 q 336 101 271 101 q 556 133 464 101 q 581 350 581 242 m 257 1085 l 504 1254 l 588 1081 l 304 990 l 257 1085 z "},"Ô":{"ha":818,"x_min":83,"x_max":749,"o":"m 749 288 q 735 147 749 203 q 685 47 721 90 q 416 -33 615 -33 q 107 57 217 -33 q 83 288 83 174 q 170 700 83 518 q 372 958 257 882 q 642 709 535 892 q 749 288 749 526 m 581 350 q 510 717 581 564 q 299 431 375 593 q 224 111 224 268 q 336 101 271 101 q 556 133 464 101 q 581 350 581 242 m 199 1061 l 360 1251 l 619 1124 l 515 999 l 410 1085 l 246 994 l 199 1061 z "},"Õ":{"ha":818,"x_min":83,"x_max":749,"o":"m 749 288 q 735 147 749 203 q 685 47 721 90 q 416 -33 615 -33 q 107 57 217 -33 q 83 288 83 174 q 170 700 83 518 q 372 958 257 882 q 642 709 535 892 q 749 288 749 526 m 581 350 q 510 717 581 564 q 299 431 375 593 q 224 111 224 268 q 336 101 271 101 q 556 133 464 101 q 581 350 581 242 m 483 1176 q 543 1239 515 1176 l 626 1217 q 508 1021 601 1021 q 437 1039 486 1021 q 363 1057 388 1057 q 303 994 331 1057 l 219 1017 q 338 1213 244 1213 q 409 1194 360 1213 q 483 1176 458 1176 z "},"Ö":{"ha":818,"x_min":83,"x_max":749,"o":"m 749 288 q 735 147 749 203 q 685 47 721 90 q 416 -33 615 -33 q 107 57 217 -33 q 83 288 83 174 q 170 700 83 518 q 372 958 257 882 q 642 709 535 892 q 749 288 749 526 m 581 350 q 510 717 581 564 q 299 431 375 593 q 224 111 224 268 q 336 101 271 101 q 556 133 464 101 q 581 350 581 242 m 188 1039 q 173 1056 188 1039 q 157 1121 157 1074 q 188 1203 157 1168 q 263 1238 219 1238 q 337 1203 306 1238 q 368 1121 368 1168 q 337 1039 368 1074 q 263 1004 306 1004 q 188 1039 219 1004 m 480 1039 q 464 1056 480 1039 q 449 1121 449 1074 q 480 1203 449 1168 q 554 1238 511 1238 q 628 1203 597 1238 q 660 1121 660 1168 q 628 1039 660 1074 q 554 1004 597 1004 q 480 1039 511 1004 z "},"×":{"ha":850,"x_min":119,"x_max":731,"o":"m 639 167 l 429 354 l 228 131 l 129 249 l 326 446 l 119 633 l 238 732 l 425 544 l 622 742 l 694 650 l 517 453 l 731 239 l 639 167 z "},"Ø":{"ha":818,"x_min":83,"x_max":749,"o":"m 654 999 l 336 -175 l 244 -154 l 563 1019 l 654 999 m 749 288 q 642 709 749 526 q 372 958 535 892 q 170 700 257 882 q 83 288 83 518 q 107 57 83 174 q 416 -33 217 -33 q 685 47 615 -33 q 735 147 721 90 q 749 288 749 203 m 581 350 q 556 133 581 242 q 336 101 464 101 q 224 111 271 101 q 299 431 224 268 q 510 717 375 593 q 581 350 581 564 z "},"Ù":{"ha":967,"x_min":104,"x_max":849,"o":"m 475 -33 q 270 43 351 -33 q 171 288 189 119 l 104 903 l 435 924 q 378 233 378 254 q 529 75 378 75 q 647 117 599 75 q 697 265 696 160 l 710 910 l 849 917 l 807 264 q 475 -33 789 -33 m 444 1254 l 692 1085 l 644 990 l 361 1081 l 444 1254 z "},"Ú":{"ha":967,"x_min":104,"x_max":849,"o":"m 475 -33 q 270 43 351 -33 q 171 288 189 119 l 104 903 l 435 924 q 378 233 378 254 q 529 75 378 75 q 647 117 599 75 q 697 265 696 160 l 710 910 l 849 917 l 807 264 q 475 -33 789 -33 m 383 1085 l 631 1254 l 714 1081 l 431 990 l 383 1085 z "},"Û":{"ha":967,"x_min":104,"x_max":849,"o":"m 475 -33 q 270 43 351 -33 q 171 288 189 119 l 104 903 l 435 924 q 378 233 378 254 q 529 75 378 75 q 647 117 599 75 q 697 265 696 160 l 710 910 l 849 917 l 807 264 q 475 -33 789 -33 m 314 1061 l 475 1251 l 735 1124 l 631 999 l 525 1085 l 361 994 l 314 1061 z "},"Ü":{"ha":967,"x_min":104,"x_max":849,"o":"m 475 -33 q 270 43 351 -33 q 171 288 189 119 l 104 903 l 435 924 q 378 233 378 254 q 529 75 378 75 q 647 117 599 75 q 697 265 696 160 l 710 910 l 849 917 l 807 264 q 475 -33 789 -33 m 312 1039 q 296 1056 312 1039 q 281 1121 281 1074 q 312 1203 281 1168 q 386 1238 343 1238 q 460 1203 429 1238 q 492 1121 492 1168 q 460 1039 492 1074 q 386 1004 429 1004 q 312 1039 343 1004 m 603 1039 q 588 1056 603 1039 q 572 1121 572 1074 q 603 1203 572 1168 q 678 1238 635 1238 q 752 1203 721 1238 q 783 1121 783 1168 q 752 1039 783 1074 q 678 1004 721 1004 q 603 1039 635 1004 z "},"Ý":{"ha":775,"x_min":6,"x_max":754,"o":"m 318 924 l 429 421 l 442 421 l 642 919 l 754 889 l 515 326 l 463 -6 l 324 -19 l 281 290 l 6 886 l 318 924 m 264 1085 l 511 1254 l 594 1081 l 311 990 l 264 1085 z "},"Þ":{"ha":874,"x_min":136,"x_max":860,"o":"m 574 781 q 835 704 701 781 q 860 561 860 629 q 722 289 860 397 q 368 135 585 181 l 354 -6 l 215 -19 l 136 875 l 453 924 l 436 765 q 574 781 515 781 m 592 521 q 504 681 592 628 q 425 665 468 681 l 378 225 q 535 355 478 272 q 592 521 592 438 z "},"ß":{"ha":1029,"x_min":28,"x_max":974,"o":"m 728 507 q 785 514 761 514 q 863 506 808 514 q 946 389 918 451 q 974 228 974 326 q 894 31 974 96 q 655 -33 814 -33 q 354 53 496 -33 l 347 -8 l 210 -21 l 156 513 l 28 494 l 28 638 l 144 643 q 180 813 144 740 q 278 925 215 885 q 569 1007 400 1007 q 885 940 778 1007 q 897 868 897 903 q 854 684 897 785 q 725 515 811 583 l 728 507 m 674 736 q 568 917 674 881 q 459 843 493 904 q 415 683 425 782 l 368 174 q 711 72 518 79 q 739 253 739 136 q 707 438 739 369 q 540 363 631 418 l 511 399 q 635 549 596 457 q 674 736 674 642 z "},"à":{"ha":806,"x_min":49,"x_max":721,"o":"m 188 -32 q 153 -31 164 -32 q 77 65 106 1 q 49 196 49 128 q 116 325 49 285 q 364 365 183 365 q 503 356 431 365 l 500 386 q 447 474 494 442 q 326 507 400 507 q 179 461 253 507 l 118 663 q 390 711 238 711 q 632 642 543 711 q 721 428 721 574 q 718 375 721 394 l 679 -8 l 542 -21 l 521 181 l 510 181 q 379 24 463 81 q 188 -32 296 -32 m 508 297 l 435 299 q 285 289 343 299 q 265 219 265 250 q 274 161 265 189 q 292 124 282 133 q 508 297 458 150 m 321 1046 l 568 876 l 521 782 l 238 872 l 321 1046 z "},"á":{"ha":806,"x_min":49,"x_max":721,"o":"m 188 -32 q 153 -31 164 -32 q 77 65 106 1 q 49 196 49 128 q 116 325 49 285 q 364 365 183 365 q 503 356 431 365 l 500 386 q 447 474 494 442 q 326 507 400 507 q 179 461 253 507 l 118 663 q 390 711 238 711 q 632 642 543 711 q 721 428 721 574 q 718 375 721 394 l 679 -8 l 542 -21 l 521 181 l 510 181 q 379 24 463 81 q 188 -32 296 -32 m 508 297 l 435 299 q 285 289 343 299 q 265 219 265 250 q 274 161 265 189 q 292 124 282 133 q 508 297 458 150 m 238 876 l 485 1046 l 568 872 l 285 782 l 238 876 z "},"â":{"ha":806,"x_min":49,"x_max":721,"o":"m 188 -32 q 153 -31 164 -32 q 77 65 106 1 q 49 196 49 128 q 116 325 49 285 q 364 365 183 365 q 503 356 431 365 l 500 386 q 447 474 494 442 q 326 507 400 507 q 179 461 253 507 l 118 663 q 390 711 238 711 q 632 642 543 711 q 721 428 721 574 q 718 375 721 394 l 679 -8 l 542 -21 l 521 181 l 510 181 q 379 24 463 81 q 188 -32 296 -32 m 508 297 l 435 299 q 285 289 343 299 q 265 219 265 250 q 274 161 265 189 q 292 124 282 133 q 508 297 458 150 m 201 853 l 363 1043 l 622 915 l 518 790 l 413 876 l 249 786 l 201 853 z "},"ã":{"ha":806,"x_min":49,"x_max":721,"o":"m 188 -32 q 153 -31 164 -32 q 77 65 106 1 q 49 196 49 128 q 116 325 49 285 q 364 365 183 365 q 503 356 431 365 l 500 386 q 447 474 494 442 q 326 507 400 507 q 179 461 253 507 l 118 663 q 390 711 238 711 q 632 642 543 711 q 721 428 721 574 q 718 375 721 394 l 679 -8 l 542 -21 l 521 181 l 510 181 q 379 24 463 81 q 188 -32 296 -32 m 508 297 l 435 299 q 285 289 343 299 q 265 219 265 250 q 274 161 265 189 q 292 124 282 133 q 508 297 458 150 m 468 968 q 528 1031 500 968 l 611 1008 q 493 813 586 813 q 422 831 471 813 q 347 849 372 849 q 288 786 315 849 l 204 808 q 322 1004 229 1004 q 394 986 344 1004 q 468 968 443 968 z "},"ä":{"ha":806,"x_min":49,"x_max":721,"o":"m 188 -32 q 153 -31 164 -32 q 77 65 106 1 q 49 196 49 128 q 116 325 49 285 q 364 365 183 365 q 503 356 431 365 l 500 386 q 447 474 494 442 q 326 507 400 507 q 179 461 253 507 l 118 663 q 390 711 238 711 q 632 642 543 711 q 721 428 721 574 q 718 375 721 394 l 679 -8 l 542 -21 l 521 181 l 510 181 q 379 24 463 81 q 188 -32 296 -32 m 508 297 l 435 299 q 285 289 343 299 q 265 219 265 250 q 274 161 265 189 q 292 124 282 133 q 508 297 458 150 m 183 831 q 167 848 183 831 q 151 913 151 865 q 183 994 151 960 q 257 1029 214 1029 q 331 994 300 1029 q 363 913 363 960 q 331 831 363 865 q 257 796 300 796 q 183 831 214 796 m 474 831 q 459 848 474 831 q 443 913 443 865 q 474 994 443 960 q 549 1029 506 1029 q 623 994 592 1029 q 654 913 654 960 q 623 831 654 865 q 549 796 592 796 q 474 831 506 796 z "},"å":{"ha":806,"x_min":49,"x_max":721,"o":"m 188 -32 q 153 -31 164 -32 q 77 65 106 1 q 49 196 49 128 q 116 325 49 285 q 364 365 183 365 q 503 356 431 365 l 500 386 q 447 474 494 442 q 326 507 400 507 q 179 461 253 507 l 118 663 q 390 711 238 711 q 632 642 543 711 q 721 428 721 574 q 718 375 721 394 l 679 -8 l 542 -21 l 521 181 l 510 181 q 379 24 463 81 q 188 -32 296 -32 m 508 297 l 435 299 q 285 289 343 299 q 265 219 265 250 q 274 161 265 189 q 292 124 282 133 q 508 297 458 150 m 557 1038 q 593 911 593 986 q 549 791 593 836 q 433 746 506 746 q 297 771 361 746 q 261 897 261 822 q 305 1017 261 972 q 420 1063 349 1063 q 557 1038 492 1063 m 488 922 q 478 985 488 958 q 426 996 464 996 q 365 885 365 967 q 375 822 365 851 q 426 813 389 813 q 488 922 488 842 z "},"æ":{"ha":1193,"x_min":49,"x_max":1117,"o":"m 508 297 q 435 299 508 297 q 285 289 343 299 q 265 219 265 250 q 274 161 265 189 q 292 124 282 133 q 508 297 458 150 m 781 749 q 1117 414 1117 614 q 1058 263 1117 310 q 839 217 999 217 q 672 232 738 217 q 646 96 646 167 q 788 88 708 88 q 1060 133 932 88 l 1101 -1 q 874 -33 1000 -33 q 542 49 650 -33 q 521 204 525 125 q 389 31 476 94 q 188 -32 301 -32 q 153 -31 164 -32 q 77 65 106 1 q 49 196 49 128 q 116 325 49 285 q 364 365 183 365 q 503 356 431 365 l 500 386 q 447 474 494 442 q 326 507 400 507 q 179 461 253 507 l 118 663 q 383 711 238 711 q 647 626 563 711 q 781 749 710 710 m 700 297 q 791 296 718 296 q 958 315 864 296 q 963 368 963 342 q 917 528 963 451 q 700 297 779 436 z "},"ç":{"ha":639,"x_min":69,"x_max":608,"o":"m 315 88 q 194 96 253 88 q 294 367 194 238 q 569 592 394 497 l 329 749 q 148 550 226 692 q 69 235 69 408 q 90 49 69 149 q 215 -10 133 13 q 404 -33 297 -33 q 608 -1 511 -33 l 567 133 q 315 88 449 88 m 186 -126 q 320 -162 269 -162 q 415 -144 371 -162 q 264 -8 378 -67 l 303 61 q 483 -83 449 -19 q 500 -150 500 -115 q 434 -256 500 -222 q 292 -289 368 -289 q 139 -260 217 -289 l 186 -126 z "},"è":{"ha":742,"x_min":69,"x_max":665,"o":"m 329 749 q 665 414 665 614 q 606 263 665 310 q 388 217 547 217 q 221 232 286 217 q 194 96 194 167 q 336 88 257 88 q 608 133 481 88 l 650 -1 q 422 -33 549 -33 q 92 49 197 -33 q 69 235 69 147 q 147 550 69 410 q 329 749 224 690 m 249 297 q 340 296 267 296 q 507 315 413 296 q 511 368 511 342 q 465 528 511 451 q 249 297 328 436 m 338 1046 l 585 876 l 538 782 l 254 872 l 338 1046 z "},"é":{"ha":742,"x_min":69,"x_max":665,"o":"m 329 749 q 665 414 665 614 q 606 263 665 310 q 388 217 547 217 q 221 232 286 217 q 194 96 194 167 q 336 88 257 88 q 608 133 481 88 l 650 -1 q 422 -33 549 -33 q 92 49 197 -33 q 69 235 69 147 q 147 550 69 410 q 329 749 224 690 m 249 297 q 340 296 267 296 q 507 315 413 296 q 511 368 511 342 q 465 528 511 451 q 249 297 328 436 m 254 876 l 501 1046 l 585 872 l 301 782 l 254 876 z "},"ê":{"ha":742,"x_min":69,"x_max":665,"o":"m 329 749 q 665 414 665 614 q 606 263 665 310 q 388 217 547 217 q 221 232 286 217 q 194 96 194 167 q 336 88 257 88 q 608 133 481 88 l 650 -1 q 422 -33 549 -33 q 92 49 197 -33 q 69 235 69 147 q 147 550 69 410 q 329 749 224 690 m 249 297 q 340 296 267 296 q 507 315 413 296 q 511 368 511 342 q 465 528 511 451 q 249 297 328 436 m 208 853 l 369 1043 l 629 915 l 525 790 l 419 876 l 256 786 l 208 853 z "},"ë":{"ha":742,"x_min":69,"x_max":671,"o":"m 329 749 q 665 414 665 614 q 606 263 665 310 q 388 217 547 217 q 221 232 286 217 q 194 96 194 167 q 336 88 257 88 q 608 133 481 88 l 650 -1 q 422 -33 549 -33 q 92 49 197 -33 q 69 235 69 147 q 147 550 69 410 q 329 749 224 690 m 249 297 q 340 296 267 296 q 507 315 413 296 q 511 368 511 342 q 465 528 511 451 q 249 297 328 436 m 199 831 q 184 848 199 831 q 168 913 168 865 q 199 994 168 960 q 274 1029 231 1029 q 348 994 317 1029 q 379 913 379 960 q 348 831 379 865 q 274 796 317 796 q 199 831 231 796 m 491 831 q 475 848 491 831 q 460 913 460 865 q 491 994 460 960 q 565 1029 522 1029 q 640 994 608 1029 q 671 913 671 960 q 640 831 671 865 q 565 796 608 796 q 491 831 522 796 z "},"ì":{"ha":492,"x_min":81,"x_max":411,"o":"m 168 -21 l 97 667 l 394 713 l 306 -8 l 168 -21 m 164 1046 l 411 876 l 364 782 l 81 872 l 164 1046 z "},"í":{"ha":492,"x_min":81,"x_max":411,"o":"m 168 -21 l 97 667 l 394 713 l 306 -8 l 168 -21 m 81 876 l 328 1046 l 411 872 l 128 782 l 81 876 z "},"î":{"ha":492,"x_min":44,"x_max":465,"o":"m 168 -21 l 97 667 l 394 713 l 306 -8 l 168 -21 m 44 853 l 206 1043 l 465 915 l 361 790 l 256 876 l 92 786 l 44 853 z "},"ï":{"ha":492,"x_min":-6,"x_max":497,"o":"m 168 -21 l 97 667 l 394 713 l 306 -8 l 168 -21 m 26 831 q 10 848 26 831 q -6 913 -6 865 q 26 994 -6 960 q 100 1029 57 1029 q 174 994 143 1029 q 206 913 206 960 q 174 831 206 865 q 100 796 143 796 q 26 831 57 796 m 317 831 q 302 848 317 831 q 286 913 286 865 q 317 994 286 960 q 392 1029 349 1029 q 466 994 435 1029 q 497 913 497 960 q 466 831 497 865 q 392 796 435 796 q 317 831 349 796 z "},"ð":{"ha":813,"x_min":69,"x_max":715,"o":"m 332 422 q 311 268 311 386 q 332 72 311 150 q 417 63 374 63 q 521 92 461 63 q 332 422 474 374 m 711 288 q 688 57 711 174 q 555 -8 639 17 q 376 -33 471 -33 q 137 30 204 -33 q 69 228 69 93 q 98 391 69 326 q 182 510 126 456 q 265 524 222 524 q 410 471 344 524 q 518 317 476 418 l 535 326 q 392 617 500 453 q 197 860 283 781 l 408 1000 q 617 722 522 925 q 711 288 711 519 m 715 854 l 244 586 l 193 690 l 681 925 l 715 854 z "},"ñ":{"ha":917,"x_min":90,"x_max":818,"o":"m 643 726 q 694 718 669 726 q 792 420 765 632 q 818 0 818 208 l 568 -21 q 544 561 568 299 q 299 -8 360 493 l 161 -21 l 90 668 l 388 714 l 357 469 l 369 469 q 496 658 425 590 q 643 726 567 726 m 524 968 q 583 1031 556 968 l 667 1008 q 549 813 642 813 q 477 831 526 813 q 403 849 428 849 q 343 786 371 849 l 260 808 q 378 1004 285 1004 q 449 986 400 1004 q 524 968 499 968 z "},"ò":{"ha":747,"x_min":69,"x_max":678,"o":"m 678 256 q 612 35 678 104 q 368 -33 546 -33 q 90 47 190 -33 q 69 247 69 147 q 98 435 69 347 q 169 586 126 524 q 331 749 260 714 q 565 564 464 681 q 678 256 678 436 m 517 293 q 461 535 517 425 q 271 349 346 474 q 196 96 196 224 q 324 88 240 88 q 494 117 407 88 q 517 293 517 201 m 292 1046 l 539 876 l 492 782 l 208 872 l 292 1046 z "},"ó":{"ha":747,"x_min":69,"x_max":678,"o":"m 678 256 q 612 35 678 104 q 368 -33 546 -33 q 90 47 190 -33 q 69 247 69 147 q 98 435 69 347 q 169 586 126 524 q 331 749 260 714 q 565 564 464 681 q 678 256 678 436 m 517 293 q 461 535 517 425 q 271 349 346 474 q 196 96 196 224 q 324 88 240 88 q 494 117 407 88 q 517 293 517 201 m 208 876 l 456 1046 l 539 872 l 256 782 l 208 876 z "},"ô":{"ha":747,"x_min":69,"x_max":678,"o":"m 678 256 q 612 35 678 104 q 368 -33 546 -33 q 90 47 190 -33 q 69 247 69 147 q 98 435 69 347 q 169 586 126 524 q 331 749 260 714 q 565 564 464 681 q 678 256 678 436 m 517 293 q 461 535 517 425 q 271 349 346 474 q 196 96 196 224 q 324 88 240 88 q 494 117 407 88 q 517 293 517 201 m 172 853 l 333 1043 l 593 915 l 489 790 l 383 876 l 219 786 l 172 853 z "},"õ":{"ha":747,"x_min":69,"x_max":678,"o":"m 678 256 q 612 35 678 104 q 368 -33 546 -33 q 90 47 190 -33 q 69 247 69 147 q 98 435 69 347 q 169 586 126 524 q 331 749 260 714 q 565 564 464 681 q 678 256 678 436 m 517 293 q 461 535 517 425 q 271 349 346 474 q 196 96 196 224 q 324 88 240 88 q 494 117 407 88 q 517 293 517 201 m 439 968 q 499 1031 471 968 l 582 1008 q 464 813 557 813 q 392 831 442 813 q 318 849 343 849 q 258 786 286 849 l 175 808 q 293 1004 200 1004 q 365 986 315 1004 q 439 968 414 968 z "},"ö":{"ha":747,"x_min":69,"x_max":678,"o":"m 678 256 q 612 35 678 104 q 368 -33 546 -33 q 90 47 190 -33 q 69 247 69 147 q 98 435 69 347 q 169 586 126 524 q 331 749 260 714 q 565 564 464 681 q 678 256 678 436 m 517 293 q 461 535 517 425 q 271 349 346 474 q 196 96 196 224 q 324 88 240 88 q 494 117 407 88 q 517 293 517 201 m 153 831 q 138 848 153 831 q 122 913 122 865 q 153 994 122 960 q 228 1029 185 1029 q 302 994 271 1029 q 333 913 333 960 q 302 831 333 865 q 228 796 271 796 q 153 831 185 796 m 445 831 q 430 848 445 831 q 414 913 414 865 q 445 994 414 960 q 519 1029 476 1029 q 594 994 563 1029 q 625 913 625 960 q 594 831 625 865 q 519 796 563 796 q 445 831 476 796 z "},"÷":{"ha":850,"x_min":125,"x_max":725,"o":"m 711 397 l 125 360 l 139 513 l 725 513 l 711 397 m 549 792 q 533 631 549 693 q 413 610 474 610 q 326 617 353 610 q 361 776 326 708 q 549 792 424 792 m 521 285 q 506 124 521 186 q 385 103 446 103 q 299 110 325 103 q 333 269 299 201 q 521 285 396 285 z "},"ø":{"ha":747,"x_min":69,"x_max":678,"o":"m 592 901 l 274 -272 l 182 -251 l 500 922 l 592 901 m 678 256 q 565 564 678 436 q 331 749 464 681 q 169 586 260 714 q 98 435 126 524 q 69 247 69 347 q 90 47 69 147 q 368 -33 190 -33 q 612 35 546 -33 q 678 256 678 104 m 517 293 q 494 117 517 201 q 324 88 407 88 q 196 96 240 88 q 271 349 196 224 q 461 535 346 474 q 517 293 517 425 z "},"ù":{"ha":958,"x_min":90,"x_max":861,"o":"m 491 163 q 516 196 491 163 q 561 307 542 229 q 581 442 581 385 q 564 667 581 500 l 861 713 l 772 -8 l 635 -21 l 607 243 l 597 243 q 269 -32 494 -32 q 214 -21 236 -32 q 117 272 143 65 q 90 683 90 478 l 368 704 q 343 340 343 461 q 364 81 343 219 q 491 163 440 97 m 397 1046 l 644 876 l 597 782 l 314 872 l 397 1046 z "},"ú":{"ha":958,"x_min":90,"x_max":861,"o":"m 491 163 q 516 196 491 163 q 561 307 542 229 q 581 442 581 385 q 564 667 581 500 l 861 713 l 772 -8 l 635 -21 l 607 243 l 597 243 q 269 -32 494 -32 q 214 -21 236 -32 q 117 272 143 65 q 90 683 90 478 l 368 704 q 343 340 343 461 q 364 81 343 219 q 491 163 440 97 m 314 876 l 561 1046 l 644 872 l 361 782 l 314 876 z "},"û":{"ha":958,"x_min":90,"x_max":861,"o":"m 491 163 q 516 196 491 163 q 561 307 542 229 q 581 442 581 385 q 564 667 581 500 l 861 713 l 772 -8 l 635 -21 l 607 243 l 597 243 q 269 -32 494 -32 q 214 -21 236 -32 q 117 272 143 65 q 90 683 90 478 l 368 704 q 343 340 343 461 q 364 81 343 219 q 491 163 440 97 m 278 853 l 439 1043 l 699 915 l 594 790 l 489 876 l 325 786 l 278 853 z "},"ü":{"ha":958,"x_min":90,"x_max":861,"o":"m 491 163 q 516 196 491 163 q 561 307 542 229 q 581 442 581 385 q 564 667 581 500 l 861 713 l 772 -8 l 635 -21 l 607 243 l 597 243 q 269 -32 494 -32 q 214 -21 236 -32 q 117 272 143 65 q 90 683 90 478 l 368 704 q 343 340 343 461 q 364 81 343 219 q 491 163 440 97 m 259 831 q 243 848 259 831 q 228 913 228 865 q 259 994 228 960 q 333 1029 290 1029 q 408 994 376 1029 q 439 913 439 960 q 408 831 439 865 q 333 796 376 796 q 259 831 290 796 m 551 831 q 535 848 551 831 q 519 913 519 865 q 551 994 519 960 q 625 1029 582 1029 q 699 994 668 1029 q 731 913 731 960 q 699 831 731 865 q 625 796 668 796 q 551 831 582 796 z "},"ý":{"ha":786,"x_min":42,"x_max":744,"o":"m 443 -81 q 342 -248 394 -201 q 205 -294 290 -294 q 42 -232 119 -294 l 83 -161 q 184 -178 129 -178 q 283 -142 239 -178 q 340 -32 328 -106 l 53 667 l 350 713 l 442 179 l 453 179 l 632 708 l 744 678 l 443 -81 m 228 876 l 475 1046 l 558 872 l 275 782 l 228 876 z "},"þ":{"ha":940,"x_min":114,"x_max":825,"o":"m 661 726 q 713 718 688 726 q 794 538 763 658 q 825 270 825 418 q 760 44 825 122 q 536 -33 696 -33 q 314 17 421 -33 l 283 -289 l 114 -301 l 114 949 l 411 994 l 353 418 l 364 418 q 499 643 421 560 q 661 726 576 726 m 482 53 q 569 72 533 53 q 590 274 590 179 q 582 450 590 369 q 563 561 574 531 q 517 541 532 549 q 468 502 501 533 q 414 428 435 471 q 332 103 358 311 q 482 53 394 53 z "},"ÿ":{"ha":786,"x_min":42,"x_max":744,"o":"m 443 -81 q 342 -248 394 -201 q 205 -294 290 -294 q 42 -232 119 -294 l 83 -161 q 184 -178 129 -178 q 283 -142 239 -178 q 340 -32 328 -106 l 53 667 l 350 713 l 442 179 l 453 179 l 632 708 l 744 678 l 443 -81 m 227 831 q 211 848 227 831 q 196 913 196 865 q 227 994 196 960 q 301 1029 258 1029 q 376 994 344 1029 q 407 913 407 960 q 376 831 407 865 q 301 796 344 796 q 227 831 258 796 m 519 831 q 503 848 519 831 q 488 913 488 865 q 519 994 488 960 q 593 1029 550 1029 q 667 994 636 1029 q 699 913 699 960 q 667 831 699 865 q 593 796 636 796 q 519 831 550 796 z "},"Ā":{"ha":888,"x_min":42,"x_max":818,"o":"m 42 0 l 301 924 l 638 903 l 818 0 l 693 -21 l 597 210 l 228 179 l 181 -21 l 42 0 m 363 749 l 253 286 l 567 283 l 374 749 l 363 749 m 647 1057 l 285 1019 l 294 1185 l 657 1185 l 647 1057 z "},"ā":{"ha":806,"x_min":49,"x_max":721,"o":"m 188 -32 q 153 -31 164 -32 q 77 65 106 1 q 49 196 49 128 q 116 325 49 285 q 364 365 183 365 q 503 356 431 365 l 500 386 q 447 474 494 442 q 326 507 400 507 q 179 461 253 507 l 118 663 q 390 711 238 711 q 632 642 543 711 q 721 428 721 574 q 718 375 721 394 l 679 -8 l 542 -21 l 521 181 l 510 181 q 379 24 463 81 q 188 -32 296 -32 m 508 297 l 435 299 q 285 289 343 299 q 265 219 265 250 q 274 161 265 189 q 292 124 282 133 q 508 297 458 150 m 607 849 l 244 811 l 254 976 l 617 976 l 607 849 z "},"Ă":{"ha":888,"x_min":42,"x_max":818,"o":"m 42 0 l 301 924 l 638 903 l 818 0 l 693 -21 l 597 210 l 228 179 l 181 -21 l 42 0 m 363 749 l 253 286 l 567 283 l 374 749 l 363 749 m 450 981 q 332 1047 379 981 q 264 1179 296 1099 l 338 1225 q 372 1169 360 1186 q 405 1136 383 1151 q 460 1121 426 1121 q 517 1150 493 1121 q 563 1233 540 1179 l 679 1157 q 450 981 575 981 z "},"ă":{"ha":806,"x_min":49,"x_max":721,"o":"m 188 -32 q 153 -31 164 -32 q 77 65 106 1 q 49 196 49 128 q 116 325 49 285 q 364 365 183 365 q 503 356 431 365 l 500 386 q 447 474 494 442 q 326 507 400 507 q 179 461 253 507 l 118 663 q 390 711 238 711 q 632 642 543 711 q 721 428 721 574 q 718 375 721 394 l 679 -8 l 542 -21 l 521 181 l 510 181 q 379 24 463 81 q 188 -32 296 -32 m 508 297 l 435 299 q 285 289 343 299 q 265 219 265 250 q 274 161 265 189 q 292 124 282 133 q 508 297 458 150 m 408 772 q 290 839 338 772 q 222 971 254 890 l 296 1017 q 330 960 318 978 q 363 928 342 943 q 418 913 385 913 q 475 942 451 913 q 521 1025 499 971 l 638 949 q 408 772 533 772 z "},"Ą":{"ha":888,"x_min":42,"x_max":943,"o":"m 42 0 l 301 924 l 638 903 l 818 0 l 693 -21 l 597 210 l 228 179 l 181 -21 l 42 0 m 363 749 l 253 286 l 567 283 l 374 749 l 363 749 m 943 -251 q 790 -281 865 -281 q 648 -247 714 -281 q 582 -142 582 -214 q 650 -17 582 -72 q 779 69 706 29 l 818 0 q 667 -136 704 -58 q 762 -154 711 -154 q 896 -118 813 -154 l 943 -251 z "},"ą":{"ha":806,"x_min":49,"x_max":806,"o":"m 188 -32 q 153 -31 164 -32 q 77 65 106 1 q 49 196 49 128 q 116 325 49 285 q 364 365 183 365 q 503 356 431 365 l 500 386 q 447 474 494 442 q 326 507 400 507 q 179 461 253 507 l 118 663 q 390 711 238 711 q 632 642 543 711 q 721 428 721 574 q 718 375 721 394 l 679 -8 l 542 -21 l 521 181 l 510 181 q 379 24 463 81 q 188 -32 296 -32 m 508 297 l 435 299 q 285 289 343 299 q 265 219 265 250 q 274 161 265 189 q 292 124 282 133 q 508 297 458 150 m 806 -260 q 652 -289 728 -289 q 510 -256 576 -289 q 444 -150 444 -222 q 511 -25 444 -81 q 642 61 568 21 l 681 -8 q 529 -144 567 -67 q 624 -162 574 -162 q 758 -126 675 -162 l 806 -260 z "},"Ć":{"ha":697,"x_min":97,"x_max":697,"o":"m 371 101 q 650 151 517 101 l 697 1 q 468 -33 585 -33 q 260 -8 351 -33 q 121 57 169 17 q 97 288 97 174 q 185 708 97 519 q 386 972 272 897 l 654 803 q 350 492 463 681 q 238 111 238 303 q 371 101 297 101 m 261 1085 l 508 1254 l 592 1081 l 308 990 l 261 1085 z "},"ć":{"ha":639,"x_min":69,"x_max":608,"o":"m 315 88 q 567 133 449 88 l 608 -1 q 404 -33 511 -33 q 215 -10 297 -33 q 90 49 133 13 q 69 235 69 149 q 148 550 69 408 q 329 749 226 692 l 569 592 q 294 367 394 497 q 194 96 194 238 q 315 88 253 88 m 200 876 l 447 1046 l 531 872 l 247 782 l 200 876 z "},"Ĉ":{"ha":697,"x_min":97,"x_max":697,"o":"m 371 101 q 650 151 517 101 l 697 1 q 468 -33 585 -33 q 260 -8 351 -33 q 121 57 169 17 q 97 288 97 174 q 185 708 97 519 q 386 972 272 897 l 654 803 q 350 492 463 681 q 238 111 238 303 q 371 101 297 101 m 201 1061 l 363 1251 l 622 1124 l 518 999 l 413 1085 l 249 994 l 201 1061 z "},"ĉ":{"ha":639,"x_min":69,"x_max":608,"o":"m 315 88 q 567 133 449 88 l 608 -1 q 404 -33 511 -33 q 215 -10 297 -33 q 90 49 133 13 q 69 235 69 149 q 148 550 69 408 q 329 749 226 692 l 569 592 q 294 367 394 497 q 194 96 194 238 q 315 88 253 88 m 136 853 l 297 1043 l 557 915 l 453 790 l 347 876 l 183 786 l 136 853 z "},"Ċ":{"ha":697,"x_min":97,"x_max":697,"o":"m 371 101 q 650 151 517 101 l 697 1 q 468 -33 585 -33 q 260 -8 351 -33 q 121 57 169 17 q 97 288 97 174 q 185 708 97 519 q 386 972 272 897 l 654 803 q 350 492 463 681 q 238 111 238 303 q 371 101 297 101 m 522 1226 q 506 1049 522 1115 q 374 1025 443 1025 q 276 1032 304 1025 q 315 1210 276 1133 q 522 1226 383 1226 z "},"ċ":{"ha":639,"x_min":69,"x_max":608,"o":"m 315 88 q 567 133 449 88 l 608 -1 q 404 -33 511 -33 q 215 -10 297 -33 q 90 49 133 13 q 69 235 69 149 q 148 550 69 408 q 329 749 226 692 l 569 592 q 294 367 394 497 q 194 96 194 238 q 315 88 253 88 m 472 1018 q 456 840 472 907 q 324 817 393 817 q 226 824 254 817 q 265 1001 226 925 q 472 1018 333 1018 z "},"Č":{"ha":697,"x_min":97,"x_max":697,"o":"m 371 101 q 650 151 517 101 l 697 1 q 468 -33 585 -33 q 260 -8 351 -33 q 121 57 169 17 q 97 288 97 174 q 185 708 97 519 q 386 972 272 897 l 654 803 q 350 492 463 681 q 238 111 238 303 q 371 101 297 101 m 647 1108 l 388 981 l 226 1171 l 274 1238 l 438 1147 l 543 1233 l 647 1108 z "},"č":{"ha":639,"x_min":69,"x_max":608,"o":"m 315 88 q 567 133 449 88 l 608 -1 q 404 -33 511 -33 q 215 -10 297 -33 q 90 49 133 13 q 69 235 69 149 q 148 550 69 408 q 329 749 226 692 l 569 592 q 294 367 394 497 q 194 96 194 238 q 315 88 253 88 m 586 900 l 326 772 l 165 963 l 213 1029 l 376 939 l 482 1025 l 586 900 z "},"Ď":{"ha":908,"x_min":136,"x_max":867,"o":"m 136 875 q 523 940 340 940 q 821 885 706 940 q 867 650 867 772 q 787 335 867 485 q 555 85 707 185 q 215 -19 403 -14 l 136 875 m 619 556 q 590 736 619 657 q 504 847 560 815 q 443 838 479 847 l 367 97 q 556 277 492 149 q 619 556 619 406 m 713 1108 l 453 981 l 292 1171 l 339 1238 l 503 1147 l 608 1233 l 713 1108 z "},"ď":{"ha":974,"x_min":115,"x_max":1167,"o":"m 285 -32 q 229 -21 251 -32 q 147 136 178 32 q 115 368 115 240 q 180 611 115 533 q 404 689 244 689 q 600 650 503 689 l 579 949 l 876 994 l 788 -8 l 650 -21 l 632 218 l 621 218 q 285 -32 514 -32 m 458 606 q 371 586 407 606 q 351 379 351 486 q 379 81 351 157 q 522 176 447 92 q 587 303 561 221 q 613 490 613 385 q 610 556 613 511 q 458 606 547 606 m 1053 932 q 1009 918 1036 918 q 965 948 982 918 q 947 1031 947 978 q 970 1111 947 1085 q 1058 1138 993 1138 q 1158 1100 1124 1138 q 1167 1001 1167 1054 q 1063 749 1167 842 l 988 819 q 1058 929 1043 865 l 1053 932 z "},"Đ":{"ha":908,"x_min":28,"x_max":867,"o":"m 136 875 q 523 940 340 940 q 821 885 706 940 q 867 650 867 772 q 787 335 867 485 q 555 85 707 185 q 215 -19 403 -14 l 136 875 m 619 556 q 590 736 619 657 q 504 847 560 815 q 443 838 479 847 l 367 97 q 556 277 492 149 q 619 556 619 406 m 544 439 l 28 401 l 42 513 l 558 513 l 544 439 z "},"đ":{"ha":974,"x_min":115,"x_max":985,"o":"m 285 -32 q 229 -21 251 -32 q 147 136 178 32 q 115 368 115 240 q 180 611 115 533 q 404 689 244 689 q 600 650 503 689 l 579 949 l 876 994 l 788 -8 l 650 -21 l 632 218 l 621 218 q 285 -32 514 -32 m 458 606 q 371 586 407 606 q 351 379 351 486 q 379 81 351 157 q 522 176 447 92 q 587 303 561 221 q 613 490 613 385 q 610 556 613 511 q 458 606 547 606 m 971 829 l 454 792 l 468 903 l 985 903 l 971 829 z "},"Ē":{"ha":840,"x_min":129,"x_max":743,"o":"m 738 0 l 194 -12 l 129 903 l 742 922 l 738 829 l 444 794 l 408 507 l 704 510 l 711 385 l 397 408 l 360 99 l 743 143 l 738 0 m 596 1057 l 233 1019 l 243 1185 l 606 1185 l 596 1057 z "},"ē":{"ha":742,"x_min":69,"x_max":665,"o":"m 329 749 q 665 414 665 614 q 606 263 665 310 q 388 217 547 217 q 221 232 286 217 q 194 96 194 167 q 336 88 257 88 q 608 133 481 88 l 650 -1 q 422 -33 549 -33 q 92 49 197 -33 q 69 235 69 147 q 147 550 69 410 q 329 749 224 690 m 249 297 q 340 296 267 296 q 507 315 413 296 q 511 368 511 342 q 465 528 511 451 q 249 297 328 436 m 596 849 l 233 811 l 243 976 l 606 976 l 596 849 z "},"Ĕ":{"ha":840,"x_min":129,"x_max":743,"o":"m 738 0 l 194 -12 l 129 903 l 742 922 l 738 829 l 444 794 l 408 507 l 704 510 l 711 385 l 397 408 l 360 99 l 743 143 l 738 0 m 399 981 q 281 1047 328 981 q 213 1179 244 1099 l 286 1225 q 320 1169 308 1186 q 353 1136 332 1151 q 408 1121 375 1121 q 465 1150 442 1121 q 511 1233 489 1179 l 628 1157 q 399 981 524 981 z "},"ĕ":{"ha":742,"x_min":69,"x_max":665,"o":"m 329 749 q 665 414 665 614 q 606 263 665 310 q 388 217 547 217 q 221 232 286 217 q 194 96 194 167 q 336 88 257 88 q 608 133 481 88 l 650 -1 q 422 -33 549 -33 q 92 49 197 -33 q 69 235 69 147 q 147 550 69 410 q 329 749 224 690 m 249 297 q 340 296 267 296 q 507 315 413 296 q 511 368 511 342 q 465 528 511 451 q 249 297 328 436 m 399 772 q 281 839 328 772 q 213 971 244 890 l 286 1017 q 320 960 308 978 q 353 928 332 943 q 408 913 375 913 q 465 942 442 913 q 511 1025 489 971 l 628 949 q 399 772 524 772 z "},"Ė":{"ha":840,"x_min":129,"x_max":743,"o":"m 738 0 l 194 -12 l 129 903 l 742 922 l 738 829 l 444 794 l 408 507 l 704 510 l 711 385 l 397 408 l 360 99 l 743 143 l 738 0 m 543 1226 q 526 1049 543 1115 q 394 1025 464 1025 q 297 1032 325 1025 q 336 1210 297 1133 q 543 1226 404 1226 z "},"ė":{"ha":742,"x_min":69,"x_max":665,"o":"m 329 749 q 665 414 665 614 q 606 263 665 310 q 388 217 547 217 q 221 232 286 217 q 194 96 194 167 q 336 88 257 88 q 608 133 481 88 l 650 -1 q 422 -33 549 -33 q 92 49 197 -33 q 69 235 69 147 q 147 550 69 410 q 329 749 224 690 m 249 297 q 340 296 267 296 q 507 315 413 296 q 511 368 511 342 q 465 528 511 451 q 249 297 328 436 m 542 1018 q 525 840 542 907 q 393 817 463 817 q 296 824 324 817 q 335 1001 296 925 q 542 1018 403 1018 z "},"Ę":{"ha":840,"x_min":129,"x_max":863,"o":"m 738 0 l 194 -12 l 129 903 l 742 922 l 738 829 l 444 794 l 408 507 l 704 510 l 711 385 l 397 408 l 360 99 l 743 143 l 738 0 m 863 -251 q 710 -281 786 -281 q 567 -247 633 -281 q 501 -142 501 -214 q 569 -17 501 -72 q 699 69 625 29 l 738 0 q 586 -136 624 -58 q 681 -154 631 -154 q 815 -118 732 -154 l 863 -251 z "},"ę":{"ha":742,"x_min":69,"x_max":751,"o":"m 329 749 q 665 414 665 614 q 606 263 665 310 q 388 217 547 217 q 221 232 286 217 q 194 96 194 167 q 336 88 257 88 q 608 133 481 88 l 650 -1 q 422 -33 549 -33 q 92 49 197 -33 q 69 235 69 147 q 147 550 69 410 q 329 749 224 690 m 249 297 q 340 296 267 296 q 507 315 413 296 q 511 368 511 342 q 465 528 511 451 q 249 297 328 436 m 751 -260 q 599 -289 675 -289 q 456 -256 522 -289 q 390 -150 390 -222 q 458 -25 390 -81 q 588 61 514 21 l 626 -8 q 475 -144 513 -67 q 570 -162 519 -162 q 704 -126 621 -162 l 751 -260 z "},"Ě":{"ha":840,"x_min":129,"x_max":743,"o":"m 738 0 l 194 -12 l 129 903 l 742 922 l 738 829 l 444 794 l 408 507 l 704 510 l 711 385 l 397 408 l 360 99 l 743 143 l 738 0 m 653 1108 l 393 981 l 232 1171 l 279 1238 l 443 1147 l 549 1233 l 653 1108 z "},"ě":{"ha":742,"x_min":69,"x_max":665,"o":"m 329 749 q 665 414 665 614 q 606 263 665 310 q 388 217 547 217 q 221 232 286 217 q 194 96 194 167 q 336 88 257 88 q 608 133 481 88 l 650 -1 q 422 -33 549 -33 q 92 49 197 -33 q 69 235 69 147 q 147 550 69 410 q 329 749 224 690 m 249 297 q 340 296 267 296 q 507 315 413 296 q 511 368 511 342 q 465 528 511 451 q 249 297 328 436 m 629 900 l 369 772 l 208 963 l 256 1029 l 419 939 l 525 1025 l 629 900 z "},"Ĝ":{"ha":800,"x_min":97,"x_max":758,"o":"m 458 -19 q 260 6 351 -19 q 121 71 169 31 q 97 301 97 182 q 168 685 97 506 q 386 972 239 865 l 654 803 q 350 492 463 681 q 238 111 238 303 q 388 96 314 96 q 522 110 463 96 l 494 414 l 758 431 l 675 -58 l 539 -69 l 533 -15 q 458 -19 496 -19 m 207 1061 l 368 1251 l 628 1124 l 524 999 l 418 1085 l 254 994 l 207 1061 z "},"ĝ":{"ha":1000,"x_min":115,"x_max":903,"o":"m 458 607 q 371 588 407 607 q 351 392 351 493 q 360 213 351 290 q 379 108 368 136 q 521 199 446 121 q 587 319 561 240 q 613 497 613 397 q 610 558 613 514 q 458 607 546 607 m 560 -306 q 274 -208 421 -306 l 313 -139 q 517 -193 436 -193 q 637 -150 599 -193 q 675 -35 675 -107 q 646 272 675 -12 l 635 272 q 285 -4 532 -4 q 229 7 251 -4 q 147 158 178 58 q 115 381 115 257 q 180 615 115 540 q 404 689 244 689 q 606 633 521 689 l 636 674 l 903 714 l 807 -62 q 729 -240 793 -175 q 560 -306 665 -306 m 289 853 l 450 1043 l 710 915 l 606 790 l 500 876 l 336 786 l 289 853 z "},"Ğ":{"ha":800,"x_min":97,"x_max":758,"o":"m 458 -19 q 260 6 351 -19 q 121 71 169 31 q 97 301 97 182 q 168 685 97 506 q 386 972 239 865 l 654 803 q 350 492 463 681 q 238 111 238 303 q 388 96 314 96 q 522 110 463 96 l 494 414 l 758 431 l 675 -58 l 539 -69 l 533 -15 q 458 -19 496 -19 m 378 981 q 260 1047 307 981 q 192 1179 224 1099 l 265 1225 q 299 1169 288 1186 q 333 1136 311 1151 q 388 1121 354 1121 q 444 1150 421 1121 q 490 1233 468 1179 l 607 1157 q 378 981 503 981 z "},"ğ":{"ha":1000,"x_min":115,"x_max":903,"o":"m 458 607 q 371 588 407 607 q 351 392 351 493 q 360 213 351 290 q 379 108 368 136 q 521 199 446 121 q 587 319 561 240 q 613 497 613 397 q 610 558 613 514 q 458 607 546 607 m 560 -306 q 274 -208 421 -306 l 313 -139 q 517 -193 436 -193 q 637 -150 599 -193 q 675 -35 675 -107 q 646 272 675 -12 l 635 272 q 285 -4 532 -4 q 229 7 251 -4 q 147 158 178 58 q 115 381 115 257 q 180 615 115 540 q 404 689 244 689 q 606 633 521 689 l 636 674 l 903 714 l 807 -62 q 729 -240 793 -175 q 560 -306 665 -306 m 478 772 q 360 839 407 772 q 292 971 324 890 l 365 1017 q 399 960 388 978 q 433 928 411 943 q 488 913 454 913 q 544 942 521 913 q 590 1025 568 971 l 707 949 q 478 772 603 772 z "},"Ġ":{"ha":800,"x_min":97,"x_max":758,"o":"m 458 -19 q 260 6 351 -19 q 121 71 169 31 q 97 301 97 182 q 168 685 97 506 q 386 972 239 865 l 654 803 q 350 492 463 681 q 238 111 238 303 q 388 96 314 96 q 522 110 463 96 l 494 414 l 758 431 l 675 -58 l 539 -69 l 533 -15 q 458 -19 496 -19 m 540 1226 q 524 1049 540 1115 q 392 1025 461 1025 q 294 1032 322 1025 q 333 1210 294 1133 q 540 1226 401 1226 z "},"ġ":{"ha":1000,"x_min":115,"x_max":903,"o":"m 458 607 q 371 588 407 607 q 351 392 351 493 q 360 213 351 290 q 379 108 368 136 q 521 199 446 121 q 587 319 561 240 q 613 497 613 397 q 610 558 613 514 q 458 607 546 607 m 560 -306 q 274 -208 421 -306 l 313 -139 q 517 -193 436 -193 q 637 -150 599 -193 q 675 -35 675 -107 q 646 272 675 -12 l 635 272 q 285 -4 532 -4 q 229 7 251 -4 q 147 158 178 58 q 115 381 115 257 q 180 615 115 540 q 404 689 244 689 q 606 633 521 689 l 636 674 l 903 714 l 807 -62 q 729 -240 793 -175 q 560 -306 665 -306 m 622 1018 q 606 840 622 907 q 474 817 543 817 q 376 824 404 817 q 415 1001 376 925 q 622 1018 483 1018 z "},"Ģ":{"ha":800,"x_min":97,"x_max":758,"o":"m 458 -19 q 260 6 351 -19 q 121 71 169 31 q 97 301 97 182 q 168 685 97 506 q 386 972 239 865 l 654 803 q 350 492 463 681 q 238 111 238 303 q 388 96 314 96 q 522 110 463 96 l 494 414 l 758 431 l 675 -58 l 539 -69 l 533 -15 q 458 -19 496 -19 m 388 -276 q 344 -290 371 -290 q 299 -260 317 -290 q 282 -177 282 -231 q 305 -97 282 -124 q 393 -71 328 -71 q 493 -108 458 -71 q 501 -207 501 -154 q 397 -460 501 -367 l 322 -389 q 393 -279 378 -343 l 388 -276 z "},"ģ":{"ha":1000,"x_min":115,"x_max":903,"o":"m 458 607 q 371 588 407 607 q 351 392 351 493 q 360 213 351 290 q 379 108 368 136 q 521 199 446 121 q 587 319 561 240 q 613 497 613 397 q 610 558 613 514 q 458 607 546 607 m 560 -306 q 274 -208 421 -306 l 313 -139 q 517 -193 436 -193 q 637 -150 599 -193 q 675 -35 675 -107 q 646 272 675 -12 l 635 272 q 285 -4 532 -4 q 229 7 251 -4 q 147 158 178 58 q 115 381 115 257 q 180 615 115 540 q 404 689 244 689 q 606 633 521 689 l 636 674 l 903 714 l 807 -62 q 729 -240 793 -175 q 560 -306 665 -306 m 496 967 q 540 981 513 981 q 584 951 567 981 q 601 867 601 921 q 578 788 601 814 q 490 761 556 761 q 390 799 425 761 q 382 897 382 844 q 486 1150 382 1057 l 561 1079 q 490 969 506 1033 l 496 967 z "},"Ĥ":{"ha":1068,"x_min":136,"x_max":950,"o":"m 713 -22 l 681 342 l 388 318 l 354 -6 l 215 -19 l 136 903 l 453 924 l 400 425 l 674 422 l 633 900 l 950 921 l 851 -8 l 713 -22 m 324 1061 l 485 1251 l 744 1124 l 640 999 l 535 1085 l 371 994 l 324 1061 z "},"ĥ":{"ha":924,"x_min":53,"x_max":825,"o":"m 651 726 q 701 718 676 726 q 799 420 772 632 q 825 0 825 208 l 575 -21 q 551 561 575 299 q 306 -8 367 493 l 168 -21 l 97 949 l 394 994 l 343 422 l 356 422 q 490 644 413 563 q 651 726 567 726 m 53 1117 l 214 1307 l 474 1179 l 369 1054 l 264 1140 l 100 1050 l 53 1117 z "},"Ħ":{"ha":1068,"x_min":29,"x_max":1038,"o":"m 713 -22 l 681 342 l 388 318 l 354 -6 l 215 -19 l 136 903 l 453 924 l 400 425 l 674 422 l 633 900 l 950 921 l 851 -8 l 713 -22 m 1011 621 l 29 583 l 56 694 l 1038 694 l 1011 621 z "},"ħ":{"ha":924,"x_min":0,"x_max":825,"o":"m 651 726 q 701 718 676 726 q 799 420 772 632 q 825 0 825 208 l 575 -21 q 551 561 575 299 q 306 -8 367 493 l 168 -21 l 97 949 l 394 994 l 343 422 l 356 422 q 490 644 413 563 q 651 726 567 726 m 517 829 l 0 792 l 14 903 l 531 903 l 517 829 z "},"Ĩ":{"ha":599,"x_min":110,"x_max":517,"o":"m 215 -19 l 136 903 l 467 924 l 368 -6 l 215 -19 m 374 1176 q 433 1239 406 1176 l 517 1217 q 399 1021 492 1021 q 327 1039 376 1021 q 253 1057 278 1057 q 193 994 221 1057 l 110 1017 q 228 1213 135 1213 q 299 1194 250 1213 q 374 1176 349 1176 z "},"ĩ":{"ha":492,"x_min":43,"x_max":450,"o":"m 168 -21 l 97 667 l 394 713 l 306 -8 l 168 -21 m 307 968 q 367 1031 339 968 l 450 1008 q 332 813 425 813 q 260 831 310 813 q 186 849 211 849 q 126 786 154 849 l 43 808 q 161 1004 68 1004 q 233 986 183 1004 q 307 968 282 968 z "},"Ī":{"ha":599,"x_min":126,"x_max":499,"o":"m 215 -19 l 136 903 l 467 924 l 368 -6 l 215 -19 m 489 1057 l 126 1019 l 136 1185 l 499 1185 l 489 1057 z "},"ī":{"ha":492,"x_min":60,"x_max":432,"o":"m 168 -21 l 97 667 l 394 713 l 306 -8 l 168 -21 m 422 849 l 60 811 l 69 976 l 432 976 l 422 849 z "},"Ĭ":{"ha":599,"x_min":106,"x_max":521,"o":"m 215 -19 l 136 903 l 467 924 l 368 -6 l 215 -19 m 292 981 q 174 1047 221 981 q 106 1179 138 1099 l 179 1225 q 213 1169 201 1186 q 247 1136 225 1151 q 301 1121 268 1121 q 358 1150 335 1121 q 404 1233 382 1179 l 521 1157 q 292 981 417 981 z "},"ĭ":{"ha":492,"x_min":39,"x_max":454,"o":"m 168 -21 l 97 667 l 394 713 l 306 -8 l 168 -21 m 225 772 q 107 839 154 772 q 39 971 71 890 l 113 1017 q 147 960 135 978 q 180 928 158 943 q 235 913 201 913 q 292 942 268 913 q 338 1025 315 971 l 454 949 q 225 772 350 772 z "},"Į":{"ha":599,"x_min":132,"x_max":493,"o":"m 215 -19 l 368 -6 l 467 924 l 136 903 l 215 -19 m 493 -257 q 340 -286 417 -286 q 198 -253 264 -286 q 132 -147 132 -219 q 200 -22 132 -78 q 329 64 256 24 l 368 -6 q 217 -142 254 -64 q 312 -160 261 -160 q 446 -124 363 -160 l 493 -257 z "},"į":{"ha":492,"x_min":69,"x_max":431,"o":"m 168 -21 l 306 -8 l 394 713 l 97 667 l 168 -21 m 141 822 q 122 841 141 822 q 103 913 103 860 q 141 1003 103 965 q 232 1042 179 1042 q 323 1003 285 1042 q 361 913 361 965 q 323 822 361 860 q 232 783 285 783 q 141 822 179 783 m 431 -260 q 277 -289 353 -289 q 135 -256 201 -289 q 69 -150 69 -222 q 136 -25 69 -81 q 267 61 193 21 l 306 -8 q 154 -144 192 -67 q 249 -162 199 -162 q 383 -126 300 -162 l 431 -260 z "},"İ":{"ha":599,"x_min":136,"x_max":467,"o":"m 215 -19 l 136 903 l 467 924 l 368 -6 l 215 -19 m 422 1226 q 406 1049 422 1115 q 274 1025 343 1025 q 176 1032 204 1025 q 215 1210 176 1133 q 422 1226 283 1226 z "},"ı":{"ha":492,"x_min":97,"x_max":394,"o":"m 168 -21 l 97 667 l 394 713 l 306 -8 l 168 -21 z "},"Ĳ":{"ha":1183,"x_min":136,"x_max":1079,"o":"m 215 -19 l 136 903 l 467 924 l 368 -6 l 215 -19 m 764 -33 q 588 14 679 -33 l 613 89 q 708 69 674 69 q 808 194 808 69 q 749 903 808 214 l 1079 924 l 1001 196 q 764 -33 976 -33 z "},"ĳ":{"ha":983,"x_min":97,"x_max":886,"o":"m 168 -21 l 97 667 l 394 713 l 306 -8 l 168 -21 m 141 822 q 122 841 141 822 q 103 913 103 860 q 141 1003 103 965 q 232 1042 179 1042 q 323 1003 285 1042 q 361 913 361 965 q 323 822 361 860 q 232 783 285 783 q 141 822 179 783 m 633 822 q 614 841 633 822 q 594 913 594 860 q 633 1003 594 965 q 724 1042 671 1042 q 815 1003 776 1042 q 853 913 853 965 q 815 822 853 860 q 724 783 776 783 q 633 822 671 783 m 586 -187 q 419 -125 497 -187 l 461 -54 q 554 -83 503 -83 q 653 39 653 -83 q 589 667 653 53 l 886 711 l 797 -7 q 586 -187 775 -187 z "},"Ĵ":{"ha":585,"x_min":-11,"x_max":503,"o":"m 165 -33 q -11 14 81 -33 l 14 89 q 110 69 75 69 q 210 194 210 69 q 150 903 210 214 l 481 924 l 403 196 q 165 -33 378 -33 m 82 1061 l 243 1251 l 503 1124 l 399 999 l 293 1085 l 129 994 l 82 1061 z "},"ĵ":{"ha":492,"x_min":-72,"x_max":457,"o":"m 161 39 q 97 667 161 53 q 394 711 97 667 l 306 -7 q 94 -187 283 -187 q -72 -125 6 -187 q -31 -54 -72 -125 q 63 -83 11 -83 q 161 39 161 -83 m 36 853 l 197 1043 l 457 915 l 353 790 l 247 876 l 83 786 l 36 853 z "},"Ķ":{"ha":946,"x_min":136,"x_max":918,"o":"m 868 829 l 575 522 l 918 1 l 624 -19 l 436 376 l 406 344 l 368 -6 l 215 -19 l 136 903 l 467 924 l 422 504 l 744 924 l 868 829 m 467 -276 q 423 -290 450 -290 q 378 -260 396 -290 q 361 -177 361 -231 q 384 -97 361 -124 q 472 -71 407 -71 q 572 -108 538 -71 q 581 -207 581 -154 q 476 -460 581 -367 l 401 -389 q 472 -279 457 -343 l 467 -276 z "},"ķ":{"ha":831,"x_min":97,"x_max":817,"o":"m 731 672 l 515 447 l 817 -3 l 553 -21 l 379 304 l 329 257 l 306 -8 l 168 -21 l 97 949 l 394 994 l 342 394 l 638 744 l 731 672 m 410 -276 q 366 -290 393 -290 q 322 -260 339 -290 q 304 -177 304 -231 q 327 -97 304 -124 q 415 -71 350 -71 q 515 -108 481 -71 q 524 -207 524 -154 q 419 -460 524 -367 l 344 -389 q 415 -279 400 -343 l 410 -276 z "},"ĸ":{"ha":831,"x_min":97,"x_max":817,"o":"m 168 -21 l 97 667 l 394 713 l 357 414 l 638 744 l 731 672 l 515 447 l 817 -3 l 553 -21 l 379 304 l 339 261 l 306 -8 l 168 -21 z "},"Ĺ":{"ha":701,"x_min":129,"x_max":715,"o":"m 710 0 l 194 -12 l 129 903 l 460 924 l 360 100 l 715 143 l 710 0 m 138 1085 l 385 1254 l 468 1081 l 185 990 l 138 1085 z "},"ĺ":{"ha":492,"x_min":67,"x_max":397,"o":"m 168 -21 l 97 949 l 394 994 l 306 -8 l 168 -21 m 67 1140 l 314 1310 l 397 1136 l 114 1046 l 67 1140 z "},"Ļ":{"ha":701,"x_min":129,"x_max":715,"o":"m 710 0 l 194 -12 l 129 903 l 460 924 l 360 100 l 715 143 l 710 0 m 281 -276 q 237 -290 264 -290 q 192 -260 210 -290 q 175 -177 175 -231 q 198 -97 175 -124 q 286 -71 221 -71 q 386 -108 351 -71 q 394 -207 394 -154 q 290 -460 394 -367 l 215 -389 q 286 -279 271 -343 l 281 -276 z "},"ļ":{"ha":492,"x_min":97,"x_max":394,"o":"m 168 -21 l 97 949 l 394 994 l 306 -8 l 168 -21 m 235 -276 q 191 -290 218 -290 q 147 -260 164 -290 q 129 -177 129 -231 q 152 -97 129 -124 q 240 -71 175 -71 q 340 -108 306 -71 q 349 -207 349 -154 q 244 -460 349 -367 l 169 -389 q 240 -279 225 -343 l 235 -276 z "},"Ľ":{"ha":701,"x_min":111,"x_max":715,"o":"m 710 0 l 194 -12 l 129 903 l 460 924 l 360 100 l 715 143 l 710 0 m 532 1108 l 272 981 l 111 1171 l 158 1238 l 322 1147 l 428 1233 l 532 1108 z "},"ľ":{"ha":492,"x_min":97,"x_max":683,"o":"m 168 -21 l 97 949 l 394 994 l 306 -8 l 168 -21 m 569 932 q 526 918 553 918 q 481 948 499 918 q 464 1031 464 978 q 487 1111 464 1085 q 575 1138 510 1138 q 675 1100 640 1138 q 683 1001 683 1054 q 579 749 683 842 l 504 819 q 575 929 560 865 l 569 932 z "},"Ŀ":{"ha":701,"x_min":129,"x_max":760,"o":"m 710 0 l 194 -12 l 129 903 l 460 924 l 360 100 l 715 143 l 710 0 m 533 367 q 517 384 533 367 q 501 456 501 401 q 533 544 501 510 q 631 578 564 578 q 728 544 697 578 q 760 456 760 510 q 728 367 760 401 q 631 333 697 333 q 533 367 564 333 z "},"ŀ":{"ha":722,"x_min":97,"x_max":694,"o":"m 168 -21 l 97 949 l 394 994 l 306 -8 l 168 -21 m 467 367 q 452 384 467 367 q 436 456 436 401 q 467 544 436 510 q 565 578 499 578 q 663 544 632 578 q 694 456 694 510 q 663 367 694 401 q 565 333 632 333 q 467 367 499 333 z "},"Ł":{"ha":701,"x_min":25,"x_max":715,"o":"m 710 0 l 194 -12 l 129 903 l 460 924 l 360 100 l 715 143 l 710 0 m 547 658 l 76 390 l 25 494 l 513 729 l 547 658 z "},"ł":{"ha":492,"x_min":-22,"x_max":500,"o":"m 168 -21 l 97 949 l 394 994 l 306 -8 l 168 -21 m 500 658 l 29 390 l -22 494 l 465 729 l 500 658 z "},"Ń":{"ha":961,"x_min":111,"x_max":892,"o":"m 892 917 l 832 0 l 707 -21 l 257 724 l 246 724 l 250 0 l 111 -7 l 149 903 l 485 924 l 728 231 l 739 231 l 753 910 l 892 917 m 371 1085 l 618 1254 l 701 1081 l 418 990 l 371 1085 z "},"ń":{"ha":917,"x_min":90,"x_max":818,"o":"m 643 726 q 694 718 669 726 q 792 420 765 632 q 818 0 818 208 l 568 -21 q 544 561 568 299 q 299 -8 360 493 l 161 -21 l 90 668 l 388 714 l 357 469 l 369 469 q 496 658 425 590 q 643 726 567 726 m 293 876 l 540 1046 l 624 872 l 340 782 l 293 876 z "},"Ņ":{"ha":961,"x_min":111,"x_max":892,"o":"m 892 917 l 832 0 l 707 -21 l 257 724 l 246 724 l 250 0 l 111 -7 l 149 903 l 485 924 l 728 231 l 739 231 l 753 910 l 892 917 m 475 -276 q 431 -290 458 -290 q 387 -260 404 -290 q 369 -177 369 -231 q 392 -97 369 -124 q 481 -71 415 -71 q 581 -108 546 -71 q 589 -207 589 -154 q 485 -460 589 -367 l 410 -389 q 481 -279 465 -343 l 475 -276 z "},"ņ":{"ha":917,"x_min":90,"x_max":818,"o":"m 643 726 q 694 718 669 726 q 792 420 765 632 q 818 0 818 208 l 568 -21 q 544 561 568 299 q 299 -8 360 493 l 161 -21 l 90 668 l 388 714 l 357 469 l 369 469 q 496 658 425 590 q 643 726 567 726 m 425 -276 q 381 -290 408 -290 q 337 -260 354 -290 q 319 -177 319 -231 q 342 -97 319 -124 q 431 -71 365 -71 q 531 -108 496 -71 q 539 -207 539 -154 q 435 -460 539 -367 l 360 -389 q 431 -279 415 -343 l 425 -276 z "},"Ň":{"ha":961,"x_min":111,"x_max":892,"o":"m 892 917 l 832 0 l 707 -21 l 257 724 l 246 724 l 250 0 l 111 -7 l 149 903 l 485 924 l 728 231 l 739 231 l 753 910 l 892 917 m 746 1108 l 486 981 l 325 1171 l 372 1238 l 536 1147 l 642 1233 l 746 1108 z "},"ň":{"ha":917,"x_min":90,"x_max":818,"o":"m 643 726 q 694 718 669 726 q 792 420 765 632 q 818 0 818 208 l 568 -21 q 544 561 568 299 q 299 -8 360 493 l 161 -21 l 90 668 l 388 714 l 357 469 l 369 469 q 496 658 425 590 q 643 726 567 726 m 668 900 l 408 772 l 247 963 l 294 1029 l 458 939 l 564 1025 l 668 900 z "},"ŉ":{"ha":917,"x_min":-68,"x_max":818,"o":"m 643 726 q 694 718 669 726 q 792 420 765 632 q 818 0 818 208 l 568 -21 q 544 561 568 299 q 299 -8 360 493 l 161 -21 l 90 668 l 388 714 l 357 469 l 369 469 q 496 658 425 590 q 643 726 567 726 m 38 932 q -6 918 21 918 q -51 948 -33 918 q -68 1031 -68 978 q -45 1111 -68 1085 q 43 1138 -22 1138 q 143 1100 108 1138 q 151 1001 151 1054 q 47 749 151 842 l -28 819 q 43 929 28 865 l 38 932 z "},"Ŋ":{"ha":961,"x_min":111,"x_max":892,"o":"m 831 -10 q 753 -222 821 -156 q 594 -289 686 -289 q 411 -242 503 -289 l 436 -167 q 532 -186 497 -186 q 667 -62 667 -186 q 567 210 667 42 l 257 721 l 246 721 l 250 0 l 111 -7 l 149 903 l 485 924 l 729 226 l 738 226 l 753 910 l 892 917 l 831 -10 z "},"ŋ":{"ha":917,"x_min":90,"x_max":818,"o":"m 818 33 q 795 -112 818 -50 q 741 -208 772 -175 q 667 -261 710 -242 q 538 -293 601 -293 q 336 -231 414 -293 l 378 -160 q 471 -189 419 -189 q 569 -67 569 -189 q 562 231 569 7 q 544 561 554 456 q 299 -8 360 493 l 161 -21 l 90 668 l 388 714 l 357 469 l 369 469 q 496 658 425 590 q 643 726 567 726 q 694 718 669 726 q 792 433 765 632 q 818 33 818 235 z "},"Ō":{"ha":818,"x_min":83,"x_max":749,"o":"m 749 288 q 735 147 749 203 q 685 47 721 90 q 416 -33 615 -33 q 107 57 217 -33 q 83 288 83 174 q 170 700 83 518 q 372 958 257 882 q 642 709 535 892 q 749 288 749 526 m 581 350 q 510 717 581 564 q 299 431 375 593 q 224 111 224 268 q 336 101 271 101 q 556 133 464 101 q 581 350 581 242 m 585 1057 l 222 1019 l 232 1185 l 594 1185 l 585 1057 z "},"ō":{"ha":747,"x_min":69,"x_max":678,"o":"m 678 256 q 612 35 678 104 q 368 -33 546 -33 q 90 47 190 -33 q 69 247 69 147 q 98 435 69 347 q 169 586 126 524 q 331 749 260 714 q 565 564 464 681 q 678 256 678 436 m 517 293 q 461 535 517 425 q 271 349 346 474 q 196 96 196 224 q 324 88 240 88 q 494 117 407 88 q 517 293 517 201 m 550 849 l 188 811 l 197 976 l 560 976 l 550 849 z "},"Ŏ":{"ha":818,"x_min":83,"x_max":749,"o":"m 749 288 q 735 147 749 203 q 685 47 721 90 q 416 -33 615 -33 q 107 57 217 -33 q 83 288 83 174 q 170 700 83 518 q 372 958 257 882 q 642 709 535 892 q 749 288 749 526 m 581 350 q 510 717 581 564 q 299 431 375 593 q 224 111 224 268 q 336 101 271 101 q 556 133 464 101 q 581 350 581 242 m 388 981 q 269 1047 317 981 q 201 1179 233 1099 l 275 1225 q 309 1169 297 1186 q 342 1136 321 1151 q 397 1121 364 1121 q 454 1150 431 1121 q 500 1233 478 1179 l 617 1157 q 388 981 513 981 z "},"ŏ":{"ha":747,"x_min":69,"x_max":678,"o":"m 678 256 q 612 35 678 104 q 368 -33 546 -33 q 90 47 190 -33 q 69 247 69 147 q 98 435 69 347 q 169 586 126 524 q 331 749 260 714 q 565 564 464 681 q 678 256 678 436 m 517 293 q 461 535 517 425 q 271 349 346 474 q 196 96 196 224 q 324 88 240 88 q 494 117 407 88 q 517 293 517 201 m 351 772 q 233 839 281 772 q 165 971 197 890 l 239 1017 q 273 960 261 978 q 306 928 285 943 q 361 913 328 913 q 418 942 394 913 q 464 1025 442 971 l 581 949 q 351 772 476 772 z "},"Ő":{"ha":818,"x_min":83,"x_max":750,"o":"m 749 288 q 735 147 749 203 q 685 47 721 90 q 416 -33 615 -33 q 107 57 217 -33 q 83 288 83 174 q 170 700 83 518 q 372 958 257 882 q 642 709 535 892 q 749 288 749 526 m 581 350 q 510 717 581 564 q 299 431 375 593 q 224 111 224 268 q 336 101 271 101 q 556 133 464 101 q 581 350 581 242 m 151 1054 l 338 1258 l 444 1115 l 201 983 l 151 1054 m 457 1054 l 643 1258 l 750 1115 l 507 983 l 457 1054 z "},"ő":{"ha":747,"x_min":69,"x_max":721,"o":"m 678 256 q 612 35 678 104 q 368 -33 546 -33 q 90 47 190 -33 q 69 247 69 147 q 98 435 69 347 q 169 586 126 524 q 331 749 260 714 q 565 564 464 681 q 678 256 678 436 m 517 293 q 461 535 517 425 q 271 349 346 474 q 196 96 196 224 q 324 88 240 88 q 494 117 407 88 q 517 293 517 201 m 122 846 l 308 1050 l 415 907 l 172 775 l 122 846 m 428 846 l 614 1050 l 721 907 l 478 775 l 428 846 z "},"Œ":{"ha":1178,"x_min":83,"x_max":1081,"o":"m 417 -33 q 107 57 217 -33 q 83 288 83 174 q 170 700 83 518 q 372 958 257 882 q 469 903 421 938 l 1079 922 l 1075 829 l 782 794 l 746 507 l 1042 510 l 1049 385 l 735 408 l 697 99 l 1081 143 l 1075 0 l 589 -11 q 417 -33 518 -33 m 224 111 q 352 100 276 100 q 522 124 428 100 l 482 690 q 292 414 360 568 q 224 111 224 260 z "},"œ":{"ha":1189,"x_min":69,"x_max":1113,"o":"m 517 293 q 461 535 517 425 q 271 349 346 474 q 196 96 196 224 q 324 88 240 88 q 494 117 407 88 q 517 293 517 201 m 776 749 q 1113 414 1113 614 q 1053 263 1113 310 q 835 217 994 217 q 668 232 733 217 q 642 96 642 167 q 783 88 704 88 q 1056 133 928 88 l 1097 -1 q 869 -33 996 -33 q 581 22 688 -33 q 369 -33 499 -33 q 90 47 190 -33 q 69 247 69 147 q 98 435 69 347 q 169 586 126 524 q 331 749 260 714 q 588 535 499 660 q 776 749 663 686 m 696 297 q 787 296 714 296 q 954 315 860 296 q 958 368 958 342 q 913 528 958 451 q 696 297 775 436 z "},"Ŕ":{"ha":975,"x_min":136,"x_max":906,"o":"m 432 353 q 392 344 407 344 l 354 -6 l 215 -19 l 136 875 q 331 918 210 899 q 564 938 453 938 q 849 871 742 938 q 874 733 874 796 q 672 444 874 558 l 906 1 l 808 -53 l 432 353 m 606 696 q 518 847 606 794 q 443 833 485 847 l 401 433 q 551 549 497 476 q 606 696 606 622 m 353 1085 l 600 1254 l 683 1081 l 400 990 l 353 1085 z "},"ŕ":{"ha":653,"x_min":90,"x_max":653,"o":"m 532 457 q 389 391 438 457 q 318 149 340 325 l 299 -8 l 161 -21 l 90 668 l 388 714 l 360 492 l 369 492 q 653 746 481 731 l 614 450 q 532 457 563 457 m 161 876 l 408 1046 l 492 872 l 208 782 l 161 876 z "},"Ŗ":{"ha":975,"x_min":136,"x_max":906,"o":"m 432 353 q 392 344 407 344 l 354 -6 l 215 -19 l 136 875 q 331 918 210 899 q 564 938 453 938 q 849 871 742 938 q 874 733 874 796 q 672 444 874 558 l 906 1 l 808 -53 l 432 353 m 606 696 q 518 847 606 794 q 443 833 485 847 l 401 433 q 551 549 497 476 q 606 696 606 622 m 511 -276 q 467 -290 494 -290 q 423 -260 440 -290 q 406 -177 406 -231 q 428 -97 406 -124 q 517 -71 451 -71 q 617 -108 582 -71 q 625 -207 625 -154 q 521 -460 625 -367 l 446 -389 q 517 -279 501 -343 l 511 -276 z "},"ŗ":{"ha":653,"x_min":90,"x_max":653,"o":"m 532 457 q 389 391 438 457 q 318 149 340 325 l 299 -8 l 161 -21 l 90 668 l 388 714 l 360 492 l 369 492 q 653 746 481 731 l 614 450 q 532 457 563 457 m 225 -276 q 181 -290 208 -290 q 137 -260 154 -290 q 119 -177 119 -231 q 142 -97 119 -124 q 231 -71 165 -71 q 331 -108 296 -71 q 339 -207 339 -154 q 235 -460 339 -367 l 160 -389 q 231 -279 215 -343 l 225 -276 z "},"Ř":{"ha":975,"x_min":136,"x_max":906,"o":"m 432 353 q 392 344 407 344 l 354 -6 l 215 -19 l 136 875 q 331 918 210 899 q 564 938 453 938 q 849 871 742 938 q 874 733 874 796 q 672 444 874 558 l 906 1 l 808 -53 l 432 353 m 606 696 q 518 847 606 794 q 443 833 485 847 l 401 433 q 551 549 497 476 q 606 696 606 622 m 728 1108 l 468 981 l 307 1171 l 354 1238 l 518 1147 l 624 1233 l 728 1108 z "},"ř":{"ha":653,"x_min":90,"x_max":653,"o":"m 532 457 q 389 391 438 457 q 318 149 340 325 l 299 -8 l 161 -21 l 90 668 l 388 714 l 360 492 l 369 492 q 653 746 481 731 l 614 450 q 532 457 563 457 m 572 900 l 313 772 l 151 963 l 199 1029 l 363 939 l 468 1025 l 572 900 z "},"Ś":{"ha":599,"x_min":68,"x_max":531,"o":"m 68 611 q 276 972 68 807 l 531 803 q 358 574 358 694 q 393 465 358 522 q 463 353 428 408 q 499 249 499 297 q 221 -62 499 47 l 154 28 q 249 100 222 65 q 275 176 275 135 q 242 270 275 218 q 172 365 210 322 q 101 475 133 408 q 68 611 68 542 m 163 1085 l 410 1254 l 493 1081 l 210 990 l 163 1085 z "},"ś":{"ha":582,"x_min":83,"x_max":499,"o":"m 83 431 q 271 740 83 600 l 499 594 q 344 396 344 500 q 408 254 344 342 q 471 118 471 167 q 221 -150 471 -56 l 160 -68 q 269 57 269 -11 q 176 219 269 121 q 113 315 142 257 q 83 431 83 372 m 154 876 l 401 1046 l 485 872 l 201 782 l 154 876 z "},"Ŝ":{"ha":599,"x_min":68,"x_max":538,"o":"m 68 611 q 276 972 68 807 l 531 803 q 358 574 358 694 q 393 465 358 522 q 463 353 428 408 q 499 249 499 297 q 221 -62 499 47 l 154 28 q 249 100 222 65 q 275 176 275 135 q 242 270 275 218 q 172 365 210 322 q 101 475 133 408 q 68 611 68 542 m 117 1061 l 278 1251 l 538 1124 l 433 999 l 328 1085 l 164 994 l 117 1061 z "},"ŝ":{"ha":582,"x_min":83,"x_max":529,"o":"m 83 431 q 271 740 83 600 l 499 594 q 344 396 344 500 q 408 254 344 342 q 471 118 471 167 q 221 -150 471 -56 l 160 -68 q 269 57 269 -11 q 176 219 269 121 q 113 315 142 257 q 83 431 83 372 m 108 853 l 269 1043 l 529 915 l 425 790 l 319 876 l 156 786 l 108 853 z "},"Ş":{"ha":599,"x_min":68,"x_max":531,"o":"m 129 -126 q 263 -162 213 -162 q 358 -144 314 -162 q 154 21 325 -64 q 275 175 275 89 q 172 365 275 249 q 101 475 133 408 q 68 611 68 542 q 276 972 68 807 l 531 803 q 358 574 358 694 q 393 465 358 522 q 463 353 428 408 q 499 249 499 297 q 344 0 499 99 q 443 -147 443 -71 q 377 -256 443 -222 q 235 -289 311 -289 q 82 -260 158 -289 l 129 -126 z "},"ş":{"ha":582,"x_min":83,"x_max":499,"o":"m 158 -126 q 292 -162 242 -162 q 388 -144 343 -162 q 218 -4 349 -65 q 269 99 269 35 q 176 261 269 163 q 113 356 142 299 q 83 472 83 414 q 271 782 83 642 l 499 636 q 344 438 344 542 q 408 296 344 383 q 471 160 471 208 q 393 -15 471 50 q 472 -150 472 -78 q 406 -256 472 -222 q 265 -289 340 -289 q 111 -260 189 -289 l 158 -126 z "},"Š":{"ha":599,"x_min":68,"x_max":538,"o":"m 68 569 q 276 931 68 765 l 531 761 q 358 532 358 653 q 393 424 358 481 q 463 311 428 367 q 499 207 499 256 q 221 -104 499 6 l 154 -14 q 249 58 222 24 q 275 135 275 93 q 242 228 275 176 q 172 324 210 281 q 101 433 133 367 q 68 569 68 500 m 538 1108 l 278 981 l 117 1171 l 164 1238 l 328 1147 l 433 1233 l 538 1108 z "},"š":{"ha":582,"x_min":83,"x_max":519,"o":"m 83 431 q 271 740 83 600 l 499 594 q 344 396 344 500 q 408 254 344 342 q 471 118 471 167 q 221 -150 471 -56 l 160 -68 q 269 57 269 -11 q 176 219 269 121 q 113 315 142 257 q 83 431 83 372 m 519 900 l 260 772 l 99 963 l 146 1029 l 310 939 l 415 1025 l 519 900 z "},"Ţ":{"ha":765,"x_min":35,"x_max":744,"o":"m 203 -126 q 337 -162 286 -162 q 432 -144 388 -162 q 272 -19 392 -62 l 319 61 q 500 -83 465 -19 q 517 -150 517 -115 q 451 -256 517 -222 q 309 -289 385 -289 q 156 -260 233 -289 l 203 -126 m 35 904 l 43 761 l 238 781 l 307 -19 l 460 -6 l 546 811 l 740 831 l 744 924 l 35 904 z "},"ţ":{"ha":599,"x_min":14,"x_max":571,"o":"m 140 -126 q 274 -162 224 -162 q 369 -144 325 -162 q 210 -21 331 -64 l 257 61 q 438 -83 403 -19 q 454 -150 454 -115 q 388 -256 454 -222 q 246 -289 322 -289 q 93 -260 169 -289 l 140 -126 m 210 -21 l 150 540 l 22 522 l 14 665 l 136 671 l 115 865 l 461 911 l 433 686 l 571 693 l 567 600 l 419 579 l 347 -8 l 210 -21 z "},"Ť":{"ha":765,"x_min":35,"x_max":744,"o":"m 35 904 l 744 924 l 740 831 l 546 811 l 460 -6 l 307 -19 l 238 781 l 43 761 l 35 904 m 593 1108 l 333 981 l 172 1171 l 219 1238 l 383 1147 l 489 1233 l 593 1108 z "},"ť":{"ha":599,"x_min":14,"x_max":736,"o":"m 210 -21 l 150 540 l 22 522 l 14 665 l 136 671 l 115 865 l 461 911 l 433 686 l 571 693 l 567 600 l 419 579 l 347 -8 l 210 -21 m 622 932 q 578 918 606 918 q 534 948 551 918 q 517 1031 517 978 q 540 1111 517 1085 q 628 1138 563 1138 q 728 1100 693 1138 q 736 1001 736 1054 q 632 749 736 842 l 557 819 q 628 929 613 865 l 622 932 z "},"Ŧ":{"ha":765,"x_min":35,"x_max":744,"o":"m 35 904 l 744 924 l 740 831 l 546 811 l 460 -6 l 307 -19 l 238 781 l 43 761 l 35 904 m 656 439 l 36 401 l 53 513 l 672 513 l 656 439 z "},"ŧ":{"ha":599,"x_min":14,"x_max":571,"o":"m 210 -21 l 150 540 l 22 522 l 14 665 l 136 671 l 115 865 l 461 911 l 433 686 l 571 693 l 567 600 l 419 579 l 347 -8 l 210 -21 m 550 317 l 33 279 l 47 390 l 564 390 l 550 317 z "},"Ũ":{"ha":967,"x_min":104,"x_max":849,"o":"m 475 -33 q 270 43 351 -33 q 171 288 189 119 l 104 903 l 435 924 q 378 233 378 254 q 529 75 378 75 q 647 117 599 75 q 697 265 696 160 l 710 910 l 849 917 l 807 264 q 475 -33 789 -33 m 592 1176 q 651 1239 624 1176 l 735 1217 q 617 1021 710 1021 q 545 1039 594 1021 q 471 1057 496 1057 q 411 994 439 1057 l 328 1017 q 446 1213 353 1213 q 517 1194 468 1213 q 592 1176 567 1176 z "},"ũ":{"ha":958,"x_min":90,"x_max":861,"o":"m 491 163 q 516 196 491 163 q 561 307 542 229 q 581 442 581 385 q 564 667 581 500 l 861 713 l 772 -8 l 635 -21 l 607 243 l 597 243 q 269 -32 494 -32 q 214 -21 236 -32 q 117 272 143 65 q 90 683 90 478 l 368 704 q 343 340 343 461 q 364 81 343 219 q 491 163 440 97 m 544 968 q 604 1031 576 968 l 688 1008 q 569 813 663 813 q 498 831 547 813 q 424 849 449 849 q 364 786 392 849 l 281 808 q 399 1004 306 1004 q 470 986 421 1004 q 544 968 519 968 z "},"Ū":{"ha":967,"x_min":104,"x_max":849,"o":"m 475 -33 q 270 43 351 -33 q 171 288 189 119 l 104 903 l 435 924 q 378 233 378 254 q 529 75 378 75 q 647 117 599 75 q 697 265 696 160 l 710 910 l 849 917 l 807 264 q 475 -33 789 -33 m 711 1057 l 349 1019 l 358 1185 l 721 1185 l 711 1057 z "},"ū":{"ha":958,"x_min":90,"x_max":861,"o":"m 491 163 q 516 196 491 163 q 561 307 542 229 q 581 442 581 385 q 564 667 581 500 l 861 713 l 772 -8 l 635 -21 l 607 243 l 597 243 q 269 -32 494 -32 q 214 -21 236 -32 q 117 272 143 65 q 90 683 90 478 l 368 704 q 343 340 343 461 q 364 81 343 219 q 491 163 440 97 m 656 849 l 293 811 l 303 976 l 665 976 l 656 849 z "},"Ŭ":{"ha":967,"x_min":104,"x_max":849,"o":"m 475 -33 q 270 43 351 -33 q 171 288 189 119 l 104 903 l 435 924 q 378 233 378 254 q 529 75 378 75 q 647 117 599 75 q 697 265 696 160 l 710 910 l 849 917 l 807 264 q 475 -33 789 -33 m 513 981 q 394 1047 442 981 q 326 1179 358 1099 l 400 1225 q 434 1169 422 1186 q 467 1136 446 1151 q 522 1121 489 1121 q 579 1150 556 1121 q 625 1233 603 1179 l 742 1157 q 513 981 638 981 z "},"ŭ":{"ha":958,"x_min":90,"x_max":861,"o":"m 491 163 q 516 196 491 163 q 561 307 542 229 q 581 442 581 385 q 564 667 581 500 l 861 713 l 772 -8 l 635 -21 l 607 243 l 597 243 q 269 -32 494 -32 q 214 -21 236 -32 q 117 272 143 65 q 90 683 90 478 l 368 704 q 343 340 343 461 q 364 81 343 219 q 491 163 440 97 m 457 772 q 339 839 386 772 q 271 971 303 890 l 344 1017 q 378 960 367 978 q 412 928 390 943 q 467 913 433 913 q 524 942 500 913 q 569 1025 547 971 l 686 949 q 457 772 582 772 z "},"Ů":{"ha":967,"x_min":104,"x_max":849,"o":"m 475 -33 q 270 43 351 -33 q 171 288 189 119 l 104 903 l 435 924 q 378 233 378 254 q 529 75 378 75 q 647 117 599 75 q 697 265 696 160 l 710 910 l 849 917 l 807 264 q 475 -33 789 -33 m 660 1246 q 696 1119 696 1194 q 652 999 696 1044 q 537 954 608 954 q 400 979 465 954 q 364 1106 364 1031 q 408 1226 364 1181 q 523 1271 451 1271 q 660 1246 594 1271 m 590 1131 q 581 1193 590 1167 q 529 1204 567 1204 q 468 1093 468 1175 q 478 1031 468 1060 q 529 1021 492 1021 q 590 1131 590 1050 z "},"ů":{"ha":958,"x_min":90,"x_max":861,"o":"m 491 163 q 516 196 491 163 q 561 307 542 229 q 581 442 581 385 q 564 667 581 500 l 861 713 l 772 -8 l 635 -21 l 607 243 l 597 243 q 269 -32 494 -32 q 214 -21 236 -32 q 117 272 143 65 q 90 683 90 478 l 368 704 q 343 340 343 461 q 364 81 343 219 q 491 163 440 97 m 606 1038 q 642 911 642 986 q 598 791 642 836 q 483 746 554 746 q 346 771 411 746 q 310 897 310 822 q 353 1017 310 972 q 469 1063 397 1063 q 606 1038 542 1063 m 536 922 q 526 985 536 958 q 475 996 513 996 q 414 885 414 967 q 424 822 414 851 q 475 813 438 813 q 536 922 536 842 z "},"Ű":{"ha":967,"x_min":104,"x_max":851,"o":"m 475 -33 q 270 43 351 -33 q 171 288 189 119 l 104 903 l 435 924 q 378 233 378 254 q 529 75 378 75 q 647 117 599 75 q 697 265 696 160 l 710 910 l 849 917 l 807 264 q 475 -33 789 -33 m 253 1054 l 439 1258 l 546 1115 l 303 983 l 253 1054 m 558 1054 l 744 1258 l 851 1115 l 608 983 l 558 1054 z "},"ű":{"ha":958,"x_min":90,"x_max":861,"o":"m 491 163 q 516 196 491 163 q 561 307 542 229 q 581 442 581 385 q 564 667 581 500 l 861 713 l 772 -8 l 635 -21 l 607 243 l 597 243 q 269 -32 494 -32 q 214 -21 236 -32 q 117 272 143 65 q 90 683 90 478 l 368 704 q 343 340 343 461 q 364 81 343 219 q 491 163 440 97 m 228 846 l 414 1050 l 521 907 l 278 775 l 228 846 m 533 846 l 719 1050 l 826 907 l 583 775 l 533 846 z "},"Ų":{"ha":967,"x_min":104,"x_max":849,"o":"m 475 -33 q 270 43 351 -33 q 171 288 189 119 l 104 903 l 435 924 q 378 233 378 254 q 529 75 378 75 q 647 117 599 75 q 697 265 696 160 l 710 910 l 849 917 l 807 264 q 475 -33 789 -33 m 756 -260 q 602 -289 678 -289 q 460 -256 526 -289 q 394 -150 394 -222 q 461 -25 394 -81 q 592 61 518 21 l 631 -8 q 479 -144 517 -67 q 574 -162 524 -162 q 708 -126 625 -162 l 756 -260 z "},"ų":{"ha":958,"x_min":90,"x_max":897,"o":"m 491 163 q 516 196 491 163 q 561 307 542 229 q 581 442 581 385 q 564 667 581 500 l 861 713 l 772 -8 l 635 -21 l 607 243 l 597 243 q 269 -32 494 -32 q 214 -21 236 -32 q 117 272 143 65 q 90 683 90 478 l 368 704 q 343 340 343 461 q 364 81 343 219 q 491 163 440 97 m 897 -260 q 744 -289 819 -289 q 602 -256 668 -289 q 536 -150 536 -222 q 603 -25 536 -81 q 733 61 660 21 l 772 -8 q 621 -144 658 -67 q 716 -162 665 -162 q 850 -126 767 -162 l 897 -260 z "},"Ŵ":{"ha":1282,"x_min":40,"x_max":1226,"o":"m 358 924 l 454 224 l 465 224 l 675 882 l 786 849 l 931 218 l 942 218 l 1101 924 l 1226 890 l 981 0 l 856 -21 l 643 447 l 485 0 l 332 -21 l 40 886 l 358 924 m 510 1061 l 671 1251 l 931 1124 l 826 999 l 721 1085 l 557 994 l 510 1061 z "},"ŵ":{"ha":1150,"x_min":42,"x_max":1108,"o":"m 328 710 l 414 169 l 425 169 l 613 663 l 713 632 l 840 165 l 851 165 l 996 700 l 1108 669 l 888 -3 l 775 -21 l 572 304 l 442 -3 l 304 -21 l 42 667 l 328 710 m 413 853 l 574 1043 l 833 915 l 729 790 l 624 876 l 460 786 l 413 853 z "},"Ŷ":{"ha":775,"x_min":6,"x_max":754,"o":"m 318 924 l 429 421 l 442 421 l 642 919 l 754 889 l 515 326 l 463 -6 l 324 -19 l 281 290 l 6 886 l 318 924 m 232 1061 l 393 1251 l 653 1124 l 549 999 l 443 1085 l 279 994 l 232 1061 z "},"ŷ":{"ha":786,"x_min":42,"x_max":744,"o":"m 443 -81 q 342 -248 394 -201 q 205 -294 290 -294 q 42 -232 119 -294 l 83 -161 q 184 -178 129 -178 q 283 -142 239 -178 q 340 -32 328 -106 l 53 667 l 350 713 l 442 179 l 453 179 l 632 708 l 744 678 l 443 -81 m 236 853 l 397 1043 l 657 915 l 553 790 l 447 876 l 283 786 l 236 853 z "},"Ÿ":{"ha":775,"x_min":6,"x_max":754,"o":"m 318 924 l 429 421 l 442 421 l 642 919 l 754 889 l 515 326 l 463 -6 l 324 -19 l 281 290 l 6 886 l 318 924 m 216 1039 q 200 1056 216 1039 q 185 1121 185 1074 q 216 1203 185 1168 q 290 1238 247 1238 q 365 1203 333 1238 q 396 1121 396 1168 q 365 1039 396 1074 q 290 1004 333 1004 q 216 1039 247 1004 m 508 1039 q 492 1056 508 1039 q 476 1121 476 1074 q 508 1203 476 1168 q 582 1238 539 1238 q 656 1203 625 1238 q 688 1121 688 1168 q 656 1039 688 1074 q 582 1004 625 1004 q 508 1039 539 1004 z "},"Ź":{"ha":778,"x_min":28,"x_max":722,"o":"m 76 917 l 703 903 l 722 758 l 181 94 l 699 143 l 707 0 l 28 -12 l 32 81 l 411 790 l 81 824 l 76 917 m 224 1085 l 471 1254 l 554 1081 l 271 990 l 224 1085 z "},"ź":{"ha":778,"x_min":63,"x_max":688,"o":"m 106 707 l 669 694 l 688 550 l 222 90 l 653 142 l 661 0 l 63 -12 l 67 72 l 379 581 l 110 608 l 106 707 m 224 876 l 471 1046 l 554 872 l 271 782 l 224 876 z "},"Ż":{"ha":778,"x_min":28,"x_max":722,"o":"m 76 917 l 703 903 l 722 758 l 181 94 l 699 143 l 707 0 l 28 -12 l 32 81 l 411 790 l 81 824 l 76 917 m 536 1226 q 519 1049 536 1115 q 388 1025 457 1025 q 290 1032 318 1025 q 329 1210 290 1133 q 536 1226 397 1226 z "},"ż":{"ha":778,"x_min":63,"x_max":688,"o":"m 106 707 l 669 694 l 688 550 l 222 90 l 653 142 l 661 0 l 63 -12 l 67 72 l 379 581 l 110 608 l 106 707 m 539 1018 q 522 840 539 907 q 390 817 460 817 q 293 824 321 817 q 332 1001 293 925 q 539 1018 400 1018 z "},"Ž":{"ha":778,"x_min":28,"x_max":722,"o":"m 76 917 l 703 903 l 722 758 l 181 94 l 699 143 l 707 0 l 28 -12 l 32 81 l 411 790 l 81 824 l 76 917 m 631 1108 l 371 981 l 210 1171 l 257 1238 l 421 1147 l 526 1233 l 631 1108 z "},"ž":{"ha":778,"x_min":63,"x_max":688,"o":"m 106 707 l 669 694 l 688 550 l 222 90 l 653 142 l 661 0 l 63 -12 l 67 72 l 379 581 l 110 608 l 106 707 m 626 900 l 367 772 l 206 963 l 253 1029 l 417 939 l 522 1025 l 626 900 z "},"ƒ":{"ha":599,"x_min":-36,"x_max":558,"o":"m 131 -262 q -36 -200 42 -262 l 6 -129 q 99 -158 47 -158 q 197 -36 197 -158 q 174 216 197 51 q 147 410 150 381 l 28 401 l 42 513 l 140 513 l 140 544 q 169 708 140 635 q 246 825 199 781 q 450 924 340 913 l 543 686 q 388 627 435 669 q 317 513 340 585 l 558 513 l 544 439 l 404 429 l 342 -82 q 131 -262 319 -262 z "},"Ǻ":{"ha":888,"x_min":42,"x_max":818,"o":"m 42 0 l 301 924 l 638 903 l 818 0 l 693 -21 l 597 210 l 228 179 l 181 -21 l 42 0 m 363 749 l 253 286 l 567 283 l 374 749 l 363 749 m 649 1200 q 661 1104 661 1164 q 617 999 661 1044 q 502 954 574 954 q 365 979 431 954 q 329 1106 329 1031 q 373 1226 329 1181 q 487 1271 417 1271 q 585 1260 557 1271 l 678 1393 l 776 1288 l 649 1200 m 556 1131 q 546 1193 556 1167 q 494 1204 532 1204 q 433 1093 433 1175 q 443 1031 433 1060 q 494 1021 457 1021 q 556 1131 556 1050 z "},"ǻ":{"ha":806,"x_min":49,"x_max":721,"o":"m 188 -32 q 153 -31 164 -32 q 77 65 106 1 q 49 196 49 128 q 116 325 49 285 q 364 365 183 365 q 503 356 431 365 l 500 386 q 447 474 494 442 q 326 507 400 507 q 179 461 253 507 l 118 663 q 390 711 238 711 q 632 642 543 711 q 721 428 721 574 q 718 375 721 394 l 679 -8 l 542 -21 l 521 181 l 510 181 q 379 24 463 81 q 188 -32 296 -32 m 508 297 l 435 299 q 285 289 343 299 q 265 219 265 250 q 274 161 265 189 q 292 124 282 133 q 508 297 458 150 m 568 992 q 581 896 581 956 q 537 791 581 836 q 422 746 493 746 q 285 771 350 746 q 249 897 249 822 q 292 1017 249 972 q 406 1063 336 1063 q 504 1051 476 1063 l 597 1185 l 696 1079 l 568 992 m 475 922 q 465 985 475 958 q 414 996 451 996 q 353 885 353 967 q 363 822 353 851 q 414 813 378 813 q 475 922 475 842 z "},"Ǽ":{"ha":1222,"x_min":42,"x_max":1125,"o":"m 1093 385 l 735 411 l 799 96 l 1125 143 l 1119 0 l 689 -12 l 597 210 l 228 179 l 181 -21 l 42 0 l 301 924 l 594 906 l 1124 922 l 1119 829 l 663 775 l 717 506 l 1086 510 l 1093 385 m 367 767 l 253 286 l 567 283 l 367 767 m 497 1085 l 744 1254 l 828 1081 l 544 990 l 497 1085 z "},"ǽ":{"ha":1193,"x_min":49,"x_max":1117,"o":"m 508 297 q 435 299 508 297 q 285 289 343 299 q 265 219 265 250 q 274 161 265 189 q 292 124 282 133 q 508 297 458 150 m 781 749 q 1117 414 1117 614 q 1058 263 1117 310 q 839 217 999 217 q 672 232 738 217 q 646 96 646 167 q 788 88 708 88 q 1060 133 932 88 l 1101 -1 q 874 -33 1000 -33 q 542 49 650 -33 q 521 204 525 125 q 389 31 476 94 q 188 -32 301 -32 q 153 -31 164 -32 q 77 65 106 1 q 49 196 49 128 q 116 325 49 285 q 364 365 183 365 q 503 356 431 365 l 500 386 q 447 474 494 442 q 326 507 400 507 q 179 461 253 507 l 118 663 q 383 711 238 711 q 647 626 563 711 q 781 749 710 710 m 700 297 q 791 296 718 296 q 958 315 864 296 q 963 368 963 342 q 917 528 963 451 q 700 297 779 436 m 450 876 l 697 1046 l 781 872 l 497 782 l 450 876 z "},"Ǿ":{"ha":818,"x_min":83,"x_max":749,"o":"m 647 972 l 336 -175 l 244 -154 l 556 993 l 647 972 m 749 288 q 642 709 749 526 q 372 958 535 892 q 170 700 257 882 q 83 288 83 518 q 107 57 83 174 q 416 -33 217 -33 q 685 47 615 -33 q 735 147 721 90 q 749 288 749 203 m 581 350 q 556 133 581 242 q 336 101 464 101 q 224 111 271 101 q 299 431 224 268 q 510 717 375 593 q 581 350 581 564 m 257 1085 l 504 1254 l 588 1081 l 304 990 l 257 1085 z "},"ǿ":{"ha":747,"x_min":69,"x_max":678,"o":"m 554 763 l 274 -272 l 182 -251 l 463 783 l 554 763 m 678 256 q 565 564 678 436 q 331 749 464 681 q 169 586 260 714 q 98 435 126 524 q 69 247 69 347 q 90 47 69 147 q 368 -33 190 -33 q 612 35 546 -33 q 678 256 678 104 m 517 293 q 494 117 517 201 q 324 88 407 88 q 196 96 240 88 q 271 349 196 224 q 461 535 346 474 q 517 293 517 425 m 208 876 l 456 1046 l 539 872 l 256 782 l 208 876 z "},"Ș":{"ha":599,"x_min":68,"x_max":531,"o":"m 68 611 q 276 972 68 807 l 531 803 q 358 574 358 694 q 393 465 358 522 q 463 353 428 408 q 499 249 499 297 q 221 -62 499 47 l 154 28 q 249 100 222 65 q 275 176 275 135 q 242 270 275 218 q 172 365 210 322 q 101 475 133 408 q 68 611 68 542 m 278 -276 q 234 -290 261 -290 q 190 -260 207 -290 q 172 -177 172 -231 q 195 -97 172 -124 q 283 -71 218 -71 q 383 -108 349 -71 q 392 -207 392 -154 q 288 -460 392 -367 l 213 -389 q 283 -279 268 -343 l 278 -276 z "},"ș":{"ha":582,"x_min":83,"x_max":499,"o":"m 83 528 q 271 838 83 697 l 499 692 q 344 493 344 597 q 408 351 344 439 q 471 215 471 264 q 221 -53 471 42 l 160 29 q 269 154 269 86 q 176 317 269 218 q 113 412 142 354 q 83 528 83 469 m 265 -276 q 222 -290 249 -290 q 177 -260 194 -290 q 160 -177 160 -231 q 183 -97 160 -124 q 271 -71 206 -71 q 371 -108 336 -71 q 379 -207 379 -154 q 275 -460 379 -367 l 200 -389 q 271 -279 256 -343 l 265 -276 z "},"Ț":{"ha":765,"x_min":35,"x_max":744,"o":"m 35 904 l 744 924 l 740 831 l 546 811 l 460 -6 l 307 -19 l 238 781 l 43 761 l 35 904 m 349 -276 q 305 -290 332 -290 q 260 -260 278 -290 q 243 -177 243 -231 q 266 -97 243 -124 q 354 -71 289 -71 q 454 -108 419 -71 q 463 -207 463 -154 q 358 -460 463 -367 l 283 -389 q 354 -279 339 -343 l 349 -276 z "},"ț":{"ha":599,"x_min":14,"x_max":571,"o":"m 210 -21 l 150 540 l 22 522 l 14 665 l 136 671 l 115 865 l 461 911 l 433 686 l 571 693 l 567 600 l 419 579 l 347 -8 l 210 -21 m 265 -276 q 222 -290 249 -290 q 177 -260 194 -290 q 160 -177 160 -231 q 183 -97 160 -124 q 271 -71 206 -71 q 371 -108 336 -71 q 379 -207 379 -154 q 275 -460 379 -367 l 200 -389 q 271 -279 256 -343 l 265 -276 z "},"ˆ":{"ha":643,"x_min":111,"x_max":532,"o":"m 111 853 l 272 1043 l 532 915 l 428 790 l 322 876 l 158 786 l 111 853 z "},"ˇ":{"ha":643,"x_min":111,"x_max":532,"o":"m 532 900 l 272 772 l 111 963 l 158 1029 l 322 939 l 428 1025 l 532 900 z "},"ˉ":{"ha":531,"x_min":79,"x_max":451,"o":"m 442 849 l 79 811 l 89 976 l 451 976 l 442 849 z "},"˘":{"ha":665,"x_min":153,"x_max":568,"o":"m 339 772 q 221 839 268 772 q 153 971 185 890 l 226 1017 q 260 960 249 978 q 294 928 272 943 q 349 913 315 913 q 406 942 382 913 q 451 1025 429 971 l 568 949 q 339 772 464 772 z "},"˙":{"ha":426,"x_min":93,"x_max":339,"o":"m 339 1018 q 322 840 339 907 q 190 817 260 817 q 93 824 121 817 q 132 1001 93 925 q 339 1018 200 1018 z "},"˚":{"ha":426,"x_min":47,"x_max":379,"o":"m 343 1038 q 379 911 379 986 q 335 791 379 836 q 219 746 292 746 q 83 771 147 746 q 47 897 47 822 q 91 1017 47 972 q 206 1063 135 1063 q 343 1038 278 1063 m 274 922 q 264 985 274 958 q 213 996 250 996 q 151 885 151 967 q 161 822 151 851 q 213 813 176 813 q 274 922 274 842 z "},"˛":{"ha":639,"x_min":172,"x_max":533,"o":"m 533 -260 q 380 -289 456 -289 q 238 -256 304 -289 q 172 -150 172 -222 q 239 -25 172 -81 q 369 61 296 21 l 408 -8 q 257 -144 294 -67 q 352 -162 301 -162 q 486 -126 403 -162 l 533 -260 z "},"˜":{"ha":639,"x_min":121,"x_max":528,"o":"m 385 968 q 444 1031 417 968 l 528 1008 q 410 813 503 813 q 338 831 388 813 q 264 849 289 849 q 204 786 232 849 l 121 808 q 239 1004 146 1004 q 310 986 261 1004 q 385 968 360 968 z "},"˝":{"ha":710,"x_min":104,"x_max":703,"o":"m 104 846 l 290 1050 l 397 907 l 154 775 l 104 846 m 410 846 l 596 1050 l 703 907 l 460 775 l 410 846 z "},"Δ":{"ha":915,"x_min":69,"x_max":846,"o":"m 69 0 l 357 924 l 554 903 l 846 0 l 69 0 m 401 811 l 210 107 l 690 75 l 401 811 z "},"Ω":{"ha":1094,"x_min":97,"x_max":997,"o":"m 97 631 q 272 883 97 833 q 504 914 374 914 q 698 908 635 914 q 822 885 761 903 q 918 836 882 867 q 997 641 997 769 q 921 375 997 513 q 728 140 844 238 l 992 103 l 996 0 l 681 0 l 613 157 q 709 335 674 221 q 744 551 744 449 q 696 732 744 654 q 547 810 647 810 q 398 732 446 810 q 350 551 350 654 q 385 335 350 449 q 482 157 421 221 l 414 0 l 99 0 l 103 103 l 365 140 q 173 374 249 236 q 97 631 97 513 z "},"μ":{"ha":958,"x_min":90,"x_max":861,"o":"m 578 496 q 564 667 578 582 l 861 713 l 772 -8 l 635 -21 l 606 264 q 350 -22 521 21 l 350 -290 l 228 -318 q 90 683 90 225 l 350 704 l 350 74 q 519 210 460 99 q 578 496 578 321 z "},"π":{"ha":1031,"x_min":42,"x_max":989,"o":"m 796 182 l 794 167 q 875 81 794 81 q 951 99 908 81 l 989 7 q 803 -33 918 -33 q 677 6 725 -33 q 621 119 629 44 l 576 547 l 417 536 l 347 -8 l 210 -21 l 151 518 l 42 511 l 64 694 l 968 694 l 946 572 l 843 565 l 796 182 z "},"Ẁ":{"ha":1282,"x_min":40,"x_max":1226,"o":"m 358 924 l 454 224 l 465 224 l 675 882 l 786 849 l 931 218 l 942 218 l 1101 924 l 1226 890 l 981 0 l 856 -21 l 643 447 l 485 0 l 332 -21 l 40 886 l 358 924 m 593 1254 l 840 1085 l 793 990 l 510 1081 l 593 1254 z "},"ẁ":{"ha":1150,"x_min":42,"x_max":1108,"o":"m 328 710 l 414 169 l 425 169 l 613 663 l 713 632 l 840 165 l 851 165 l 996 700 l 1108 669 l 888 -3 l 775 -21 l 572 304 l 442 -3 l 304 -21 l 42 667 l 328 710 m 529 1046 l 776 876 l 729 782 l 446 872 l 529 1046 z "},"Ẃ":{"ha":1282,"x_min":40,"x_max":1226,"o":"m 358 924 l 454 224 l 465 224 l 675 882 l 786 849 l 931 218 l 942 218 l 1101 924 l 1226 890 l 981 0 l 856 -21 l 643 447 l 485 0 l 332 -21 l 40 886 l 358 924 m 554 1085 l 801 1254 l 885 1081 l 601 990 l 554 1085 z "},"ẃ":{"ha":1150,"x_min":42,"x_max":1108,"o":"m 328 710 l 414 169 l 425 169 l 613 663 l 713 632 l 840 165 l 851 165 l 996 700 l 1108 669 l 888 -3 l 775 -21 l 572 304 l 442 -3 l 304 -21 l 42 667 l 328 710 m 457 876 l 704 1046 l 788 872 l 504 782 l 457 876 z "},"Ẅ":{"ha":1282,"x_min":40,"x_max":1226,"o":"m 358 924 l 454 224 l 465 224 l 675 882 l 786 849 l 931 218 l 942 218 l 1101 924 l 1226 890 l 981 0 l 856 -21 l 643 447 l 485 0 l 332 -21 l 40 886 l 358 924 m 497 1039 q 481 1056 497 1039 q 465 1121 465 1074 q 497 1203 465 1168 q 571 1238 528 1238 q 645 1203 614 1238 q 676 1121 676 1168 q 645 1039 676 1074 q 571 1004 614 1004 q 497 1039 528 1004 m 788 1039 q 773 1056 788 1039 q 757 1121 757 1074 q 788 1203 757 1168 q 863 1238 819 1238 q 937 1203 906 1238 q 968 1121 968 1168 q 937 1039 968 1074 q 863 1004 906 1004 q 788 1039 819 1004 z "},"ẅ":{"ha":1150,"x_min":42,"x_max":1108,"o":"m 328 710 l 414 169 l 425 169 l 613 663 l 713 632 l 840 165 l 851 165 l 996 700 l 1108 669 l 888 -3 l 775 -21 l 572 304 l 442 -3 l 304 -21 l 42 667 l 328 710 m 399 831 q 384 848 399 831 q 368 913 368 865 q 399 994 368 960 q 474 1029 431 1029 q 548 994 517 1029 q 579 913 579 960 q 548 831 579 865 q 474 796 517 796 q 399 831 431 796 m 691 831 q 675 848 691 831 q 660 913 660 865 q 691 994 660 960 q 765 1029 722 1029 q 840 994 808 1029 q 871 913 871 960 q 840 831 871 865 q 765 796 808 796 q 691 831 722 796 z "},"Ỳ":{"ha":775,"x_min":6,"x_max":754,"o":"m 318 924 l 429 421 l 442 421 l 642 919 l 754 889 l 515 326 l 463 -6 l 324 -19 l 281 290 l 6 886 l 318 924 m 346 1254 l 593 1085 l 546 990 l 263 1081 l 346 1254 z "},"ỳ":{"ha":786,"x_min":42,"x_max":744,"o":"m 443 -81 q 342 -248 394 -201 q 205 -294 290 -294 q 42 -232 119 -294 l 83 -161 q 184 -178 129 -178 q 283 -142 239 -178 q 340 -32 328 -106 l 53 667 l 350 713 l 442 179 l 453 179 l 632 708 l 744 678 l 443 -81 m 367 1046 l 614 876 l 567 782 l 283 872 l 367 1046 z "},"–":{"ha":775,"x_min":0,"x_max":775,"o":"m 758 401 l 0 357 l 17 490 l 775 490 l 758 401 z "},"—":{"ha":1192,"x_min":0,"x_max":1192,"o":"m 1175 401 l 0 357 l 17 490 l 1192 490 l 1175 401 z "},"‘":{"ha":453,"x_min":97,"x_max":356,"o":"m 231 881 q 282 896 250 896 q 335 861 314 896 q 356 763 356 826 q 329 669 356 700 q 227 638 303 638 q 107 682 151 638 q 97 799 97 732 q 219 1129 97 1018 l 324 1046 q 225 883 243 979 l 231 881 z "},"’":{"ha":453,"x_min":97,"x_max":356,"o":"m 222 869 q 171 854 203 854 q 118 889 139 854 q 97 987 97 924 q 124 1081 97 1050 q 226 1113 150 1113 q 346 1068 301 1113 q 356 951 356 1018 q 233 621 356 732 l 129 704 q 228 867 210 771 l 222 869 z "},"‚":{"ha":397,"x_min":69,"x_max":328,"o":"m 194 -6 q 143 -21 175 -21 q 90 14 111 -21 q 69 112 69 49 q 96 206 69 175 q 198 238 122 238 q 318 193 274 238 q 328 76 328 143 q 206 -254 328 -143 l 101 -171 q 200 -8 182 -104 l 194 -6 z "},"“":{"ha":800,"x_min":97,"x_max":703,"o":"m 231 881 q 282 896 250 896 q 335 861 314 896 q 356 763 356 826 q 329 669 356 700 q 227 638 303 638 q 107 682 151 638 q 97 799 97 732 q 219 1129 97 1018 l 324 1046 q 225 883 243 979 l 231 881 m 578 881 q 629 896 597 896 q 682 861 661 896 q 703 763 703 826 q 676 669 703 700 q 574 638 650 638 q 454 682 499 638 q 444 799 444 732 q 567 1129 444 1018 l 671 1046 q 572 883 590 979 l 578 881 z "},"”":{"ha":800,"x_min":97,"x_max":703,"o":"m 222 869 q 171 854 203 854 q 118 889 139 854 q 97 987 97 924 q 124 1081 97 1050 q 226 1113 150 1113 q 346 1068 301 1113 q 356 951 356 1018 q 233 621 356 732 l 129 704 q 228 867 210 771 l 222 869 m 569 869 q 518 854 550 854 q 465 889 486 854 q 444 987 444 924 q 471 1081 444 1050 q 573 1113 497 1113 q 693 1068 649 1113 q 703 951 703 1018 q 581 621 703 732 l 476 704 q 575 867 557 771 l 569 869 z "},"„":{"ha":800,"x_min":97,"x_max":703,"o":"m 222 -6 q 171 -21 203 -21 q 118 14 139 -21 q 97 112 97 49 q 124 206 97 175 q 226 238 150 238 q 346 193 301 238 q 356 76 356 143 q 233 -254 356 -143 l 129 -171 q 228 -8 210 -104 l 222 -6 m 569 -6 q 518 -21 550 -21 q 465 14 486 -21 q 444 112 444 49 q 471 206 444 175 q 573 238 497 238 q 693 193 649 238 q 703 76 703 143 q 581 -254 703 -143 l 476 -171 q 575 -8 557 -104 l 569 -6 z "},"†":{"ha":896,"x_min":69,"x_max":826,"o":"m 826 578 l 578 603 l 501 -281 l 392 -281 l 314 601 l 83 578 l 69 789 l 300 753 l 279 999 l 615 1026 l 592 753 l 813 789 l 826 578 z "},"‡":{"ha":896,"x_min":69,"x_max":826,"o":"m 69 168 l 344 140 l 378 363 l 340 604 l 83 578 l 69 789 l 317 751 l 279 999 l 615 1026 l 574 750 l 813 789 l 826 578 l 551 604 l 518 383 l 556 140 l 813 168 l 826 -43 l 578 -6 l 617 -253 l 281 -281 l 322 -4 l 83 -43 l 69 168 z "},"•":{"ha":463,"x_min":69,"x_max":393,"o":"m 109 316 q 89 337 109 316 q 69 426 69 358 q 109 537 69 494 q 232 579 149 579 q 354 537 315 579 q 393 426 393 494 q 354 316 393 358 q 232 274 315 274 q 109 316 149 274 z "},"…":{"ha":1192,"x_min":69,"x_max":1122,"o":"m 101 20 q 85 37 101 20 q 69 108 69 54 q 101 197 69 163 q 199 231 132 231 q 297 197 265 231 q 328 108 328 163 q 297 20 328 54 q 199 -14 265 -14 q 101 20 132 -14 m 498 20 q 482 37 498 20 q 467 108 467 54 q 498 197 467 163 q 596 231 529 231 q 694 197 663 231 q 725 108 725 163 q 694 20 725 54 q 596 -14 663 -14 q 498 20 529 -14 m 895 20 q 880 37 895 20 q 864 108 864 54 q 895 197 864 163 q 993 231 926 231 q 1091 197 1060 231 q 1122 108 1122 163 q 1091 20 1122 54 q 993 -14 1060 -14 q 895 20 926 -14 z "},"‰":{"ha":1640,"x_min":42,"x_max":1543,"o":"m 342 -94 l 653 1026 l 781 997 l 411 -112 l 342 -94 m 251 369 q 88 425 165 369 q 42 647 42 540 q 131 931 42 835 q 242 950 193 950 q 404 894 329 950 q 453 672 453 778 q 367 393 453 486 q 251 369 303 369 m 156 517 q 161 453 156 481 q 213 447 183 447 q 305 612 272 515 q 338 803 338 708 q 332 868 338 840 q 283 872 307 872 q 190 706 224 803 q 156 517 156 608 m 860 -19 q 696 36 774 -19 q 650 258 650 151 q 739 542 650 446 q 850 561 801 561 q 1013 506 938 561 q 1061 283 1061 389 q 975 4 1061 97 q 860 -19 911 -19 m 764 128 q 769 64 764 92 q 821 58 792 58 q 913 223 881 126 q 946 414 946 319 q 940 479 946 451 q 892 483 915 483 q 798 317 832 414 q 764 128 764 219 m 1342 -19 q 1178 36 1256 -19 q 1132 258 1132 151 q 1221 542 1132 446 q 1332 561 1283 561 q 1494 506 1419 561 q 1543 283 1543 389 q 1457 4 1543 97 q 1342 -19 1393 -19 m 1246 128 q 1251 64 1246 92 q 1303 58 1274 58 q 1395 223 1363 126 q 1428 414 1428 319 q 1422 479 1428 451 q 1374 483 1397 483 q 1280 317 1314 414 q 1246 128 1246 219 z "},"‹":{"ha":581,"x_min":97,"x_max":483,"o":"m 97 376 l 322 647 l 449 585 l 303 338 l 483 92 l 365 29 l 107 272 l 97 376 z "},"›":{"ha":581,"x_min":97,"x_max":483,"o":"m 483 300 l 258 29 l 132 92 l 278 339 l 97 585 l 215 647 l 474 404 l 483 300 z "},"⁄":{"ha":689,"x_min":125,"x_max":564,"o":"m 125 -94 l 436 1026 l 564 997 l 194 -112 l 125 -94 z "},"₀":{"ha":606,"x_min":97,"x_max":508,"o":"m 307 -297 q 143 -242 221 -297 q 97 -19 97 -126 q 186 264 97 168 q 297 283 249 283 q 460 228 385 283 q 508 6 508 111 q 422 -274 508 -181 q 307 -297 358 -297 m 211 -150 q 217 -214 211 -186 q 268 -219 239 -219 q 360 -55 328 -151 q 393 136 393 42 q 388 201 393 174 q 339 206 363 206 q 245 39 279 136 q 211 -150 211 -58 z "},"₁":{"ha":478,"x_min":32,"x_max":367,"o":"m 325 285 l 367 268 l 308 -281 l 201 -290 l 178 100 q 133 68 168 93 q 83 32 97 43 l 32 136 l 325 285 z "},"₂":{"ha":565,"x_min":76,"x_max":475,"o":"m 81 228 q 283 283 178 283 q 460 239 389 283 q 471 175 471 211 q 408 -15 471 82 q 246 -181 344 -112 l 246 -190 q 475 -167 449 -168 l 475 -278 l 82 -278 l 76 -211 q 228 -62 165 -169 q 290 135 290 44 q 258 211 290 192 q 198 170 243 201 q 131 125 153 139 l 81 228 z "},"₃":{"ha":561,"x_min":71,"x_max":489,"o":"m 214 -18 q 283 122 283 57 q 243 211 283 188 q 124 125 221 194 l 72 228 q 128 257 107 247 q 278 283 185 283 q 443 239 372 283 q 451 193 451 217 q 382 46 451 119 q 418 39 397 46 q 489 -136 489 -29 q 283 -297 489 -297 q 71 -240 171 -297 l 119 -154 q 321 -219 208 -212 q 333 -117 333 -172 q 322 -31 333 -61 q 226 -74 274 -43 l 199 -35 l 214 -18 z "},"₄":{"ha":564,"x_min":96,"x_max":493,"o":"m 196 -110 q 260 -112 218 -112 q 339 -108 303 -112 l 332 17 l 493 26 l 460 -281 l 353 -292 l 346 -203 q 113 -151 176 -203 q 96 -31 96 -85 q 149 170 96 79 q 274 296 203 261 l 439 186 q 268 54 339 138 q 196 -110 197 -29 z "},"₅":{"ha":561,"x_min":71,"x_max":489,"o":"m 367 46 q 418 39 397 46 q 489 -136 489 -29 q 283 -297 489 -297 q 71 -240 171 -297 l 119 -154 q 321 -219 208 -212 q 331 -120 331 -183 q 321 -29 331 -57 q 206 -71 261 -36 l 132 -61 l 79 239 l 96 263 l 454 276 l 436 163 l 268 178 l 229 8 q 367 46 292 46 z "},"₆":{"ha":561,"x_min":86,"x_max":481,"o":"m 357 47 q 410 39 385 47 q 481 -124 481 -29 q 439 -258 481 -219 q 281 -297 397 -297 q 101 -240 165 -297 q 86 -100 86 -168 q 146 145 86 32 q 274 313 206 258 l 422 214 q 239 -3 318 136 l 246 -7 q 357 47 297 47 m 214 -211 q 269 -225 247 -225 q 311 -221 292 -225 q 322 -117 322 -179 q 314 -32 322 -56 q 214 -211 242 -67 z "},"₇":{"ha":508,"x_min":46,"x_max":429,"o":"m 46 276 l 413 263 l 429 238 l 289 -281 l 183 -290 l 214 174 l 64 163 l 46 276 z "},"₈":{"ha":597,"x_min":85,"x_max":508,"o":"m 85 -131 q 108 -58 85 -94 q 161 -1 132 -22 l 140 8 q 94 132 94 65 q 292 283 94 283 q 449 256 379 283 q 499 127 499 194 q 439 8 499 60 l 457 1 q 508 -135 508 -62 q 300 -297 508 -297 q 135 -267 213 -297 q 85 -131 85 -203 m 303 -229 q 354 -128 354 -187 q 324 -28 354 -69 q 286 -25 310 -25 q 233 -149 233 -69 q 244 -210 233 -181 q 303 -229 268 -225 m 286 213 q 235 122 235 174 q 265 39 235 71 q 308 35 282 35 q 363 142 363 72 q 353 197 363 171 q 286 213 325 208 z "},"₉":{"ha":561,"x_min":86,"x_max":481,"o":"m 208 -60 q 158 -54 182 -60 q 86 112 86 18 q 128 244 86 206 q 283 283 169 283 q 465 226 396 283 q 481 85 481 154 q 419 -167 481 -51 q 283 -329 357 -282 l 135 -231 q 317 -29 249 -143 l 311 -25 q 208 -60 264 -60 m 354 158 q 351 196 354 168 q 299 211 318 211 q 257 206 279 211 q 246 106 246 172 q 254 14 246 39 q 354 158 354 39 z "},"₣":{"ha":797,"x_min":83,"x_max":742,"o":"m 610 538 l 610 408 l 393 375 l 376 235 l 614 235 l 600 161 l 365 144 l 347 -6 l 194 -12 l 183 131 l 83 124 l 97 235 l 176 235 l 129 903 l 742 922 l 738 829 l 444 794 l 413 538 l 610 538 z "},"₤":{"ha":878,"x_min":83,"x_max":794,"o":"m 190 554 q 163 732 163 660 q 181 857 163 804 q 465 924 288 924 q 648 903 576 924 q 794 840 719 882 l 722 690 l 511 833 q 453 767 469 807 q 438 656 438 728 q 436 554 438 583 l 642 554 l 628 481 l 433 467 q 421 346 431 401 l 614 346 l 600 272 l 401 258 q 289 83 367 149 l 768 157 l 776 0 l 153 0 l 157 64 q 250 247 236 131 l 83 235 l 97 346 l 246 346 q 219 450 239 386 l 111 443 l 125 554 l 190 554 z "},"€":{"ha":697,"x_min":0,"x_max":697,"o":"m 371 101 q 650 151 517 101 l 697 1 q 458 -33 585 -33 q 179 25 253 -33 q 99 242 106 83 l 0 235 l 14 346 l 99 346 q 113 449 103 404 l 28 443 l 42 554 l 139 554 q 266 807 185 696 q 428 972 347 918 l 696 803 q 393 554 511 706 l 558 554 l 544 481 l 333 465 q 279 346 300 408 l 531 346 l 517 272 l 251 253 q 238 111 238 185 q 371 101 297 101 z "},"ℓ":{"ha":492,"x_min":97,"x_max":518,"o":"m 325 182 l 324 167 q 404 81 324 81 q 481 99 438 81 l 518 7 q 375 -33 447 -33 q 154 167 169 -33 l 97 949 l 394 994 l 325 182 z "},"™":{"ha":1282,"x_min":51,"x_max":1174,"o":"m 172 839 l 57 828 l 51 921 l 482 932 l 479 869 l 364 857 l 313 372 l 214 364 l 172 839 m 1092 363 l 974 799 l 883 375 l 803 363 l 626 761 l 613 375 l 522 371 l 561 919 l 768 928 l 849 551 l 942 932 l 1149 919 l 1174 376 l 1092 363 z "},"Ω":{"ha":1094,"x_min":97,"x_max":997,"o":"m 97 631 q 272 883 97 833 q 504 914 374 914 q 698 908 635 914 q 822 885 761 903 q 918 836 882 867 q 997 641 997 769 q 921 375 997 513 q 728 140 844 238 l 992 103 l 996 0 l 681 0 l 613 157 q 709 335 674 221 q 744 551 744 449 q 696 732 744 654 q 547 810 647 810 q 398 732 446 810 q 350 551 350 654 q 385 335 350 449 q 482 157 421 221 l 414 0 l 99 0 l 103 103 l 365 140 q 173 374 249 236 q 97 631 97 513 z "},"℮":{"ha":833,"x_min":61,"x_max":779,"o":"m 218 360 l 218 108 q 419 26 304 26 q 688 193 592 26 l 736 164 q 592 19 660 61 q 419 -24 525 -24 q 158 86 254 -24 q 61 364 61 196 q 158 638 61 532 q 422 743 254 743 q 680 637 589 743 q 779 360 771 531 l 218 360 m 218 410 l 622 410 l 622 611 q 417 694 535 694 q 218 611 300 694 l 218 410 z "},"∂":{"ha":813,"x_min":33,"x_max":731,"o":"m 468 167 q 357 422 468 378 q 290 244 310 353 q 271 76 271 135 q 351 63 306 63 q 465 92 397 63 q 468 167 468 147 m 731 508 q 624 57 731 299 q 474 -8 564 17 q 268 -33 385 -33 q 33 132 33 -33 q 90 360 33 265 q 229 510 147 456 q 315 524 272 524 q 447 471 394 524 q 518 317 500 418 l 538 326 q 465 597 532 467 q 235 836 390 744 l 436 1000 q 731 508 731 840 z "},"∆":{"ha":915,"x_min":69,"x_max":846,"o":"m 69 0 l 357 924 l 554 903 l 846 0 l 69 0 m 401 811 l 210 107 l 690 75 l 401 811 z "},"∏":{"ha":1082,"x_min":28,"x_max":1054,"o":"m 710 -229 l 642 768 l 428 756 l 347 -217 l 210 -229 l 143 739 l 28 732 l 49 904 l 1054 904 l 1033 790 l 931 785 l 847 -217 l 710 -229 z "},"∑":{"ha":888,"x_min":69,"x_max":874,"o":"m 90 -121 l 396 244 l 111 731 l 132 903 l 874 924 l 853 810 l 267 747 l 644 386 l 388 -96 l 832 -42 l 853 -214 l 69 -235 l 90 -121 z "},"−":{"ha":850,"x_min":125,"x_max":725,"o":"m 711 397 l 125 360 l 139 513 l 725 513 l 711 397 z "},"∕":{"ha":689,"x_min":125,"x_max":564,"o":"m 125 -94 l 436 1026 l 564 997 l 194 -112 l 125 -94 z "},"√":{"ha":832,"x_min":49,"x_max":1086,"o":"m 297 368 l 400 -29 l 722 1051 l 1086 1051 l 1072 978 l 829 953 l 447 -208 l 322 -229 l 49 331 l 297 368 z "},"∞":{"ha":993,"x_min":69,"x_max":924,"o":"m 688 299 q 828 403 789 299 q 714 558 828 558 q 612 505 660 558 q 542 361 564 451 q 612 317 568 335 q 688 299 656 299 m 708 694 q 903 575 861 694 q 924 419 924 518 q 881 219 924 319 q 688 157 789 157 q 576 184 629 157 q 492 258 524 211 q 285 157 410 157 q 89 276 132 157 q 69 433 69 333 q 113 632 69 532 q 306 694 204 694 q 417 667 364 694 q 501 593 469 640 q 708 694 583 694 m 306 553 q 165 449 204 553 q 279 293 165 293 q 381 347 333 293 q 451 490 429 400 q 381 535 425 517 q 306 553 338 553 z "},"∫":{"ha":599,"x_min":-39,"x_max":657,"o":"m 425 924 q 657 860 578 924 l 615 789 q 523 818 574 818 q 451 788 472 818 q 424 696 431 758 l 339 -82 q 128 -262 318 -262 q -39 -200 39 -262 l 3 -129 q 96 -158 44 -158 q 194 -36 194 -158 q 133 617 133 583 q 425 924 133 924 z "},"≈":{"ha":850,"x_min":125,"x_max":725,"o":"m 711 544 q 593 576 658 576 q 423 515 528 576 q 246 454 318 454 q 125 499 174 454 l 135 656 q 253 613 186 613 q 417 652 319 613 q 587 692 515 692 q 725 644 658 692 l 711 544 m 135 326 q 249 290 183 290 q 418 353 314 290 q 594 417 522 417 q 725 374 665 417 l 711 217 q 588 261 654 261 q 423 217 521 261 q 252 172 325 172 q 125 228 179 172 l 135 326 z "},"≠":{"ha":850,"x_min":125,"x_max":725,"o":"m 711 536 l 125 499 l 139 651 l 725 651 l 711 536 m 139 336 l 725 374 l 711 221 l 125 221 l 139 336 m 192 -94 l 503 1026 l 658 983 l 289 -126 l 192 -94 z "},"≤":{"ha":850,"x_min":125,"x_max":731,"o":"m 711 799 l 318 543 l 731 351 l 650 219 l 146 500 l 146 621 l 678 883 l 711 799 m 711 22 l 125 -15 l 139 138 l 725 138 l 711 22 z "},"≥":{"ha":850,"x_min":119,"x_max":725,"o":"m 139 304 l 532 560 l 119 751 l 200 883 l 704 603 l 704 482 l 172 219 l 139 304 m 711 22 l 125 -15 l 139 138 l 725 138 l 711 22 z "},"◊":{"ha":860,"x_min":97,"x_max":763,"o":"m 97 417 l 329 924 l 540 924 l 763 417 l 531 -90 l 319 -90 l 97 417 m 376 846 l 218 415 l 482 -12 l 642 418 l 376 846 z "},"":{"ha":417,"x_min":97,"x_max":317,"o":"m 203 -276 q 159 -290 186 -290 q 115 -260 132 -290 q 97 -177 97 -231 q 120 -97 97 -124 q 208 -71 143 -71 q 308 -108 274 -71 q 317 -207 317 -154 q 213 -460 317 -367 l 138 -389 q 208 -279 193 -343 l 203 -276 z "},"":{"ha":1282,"x_min":139,"x_max":1143,"o":"m 818 -124 l 786 -122 q 742 -139 767 -122 q 706 -156 718 -156 l 642 -142 q 609 -150 631 -142 q 576 -158 588 -158 q 542 -141 564 -158 q 501 -124 519 -124 l 468 -126 q 422 -103 447 -126 l 397 -76 q 363 -67 381 -68 q 332 -58 344 -65 q 310 -26 319 -50 q 292 5 300 -1 q 265 19 285 11 q 238 39 246 26 q 228 72 231 51 q 219 101 225 92 q 200 119 214 110 q 169 172 169 144 l 174 207 q 156 244 174 219 q 139 281 139 268 q 147 313 139 293 q 156 345 156 333 q 147 375 156 357 q 139 406 139 393 q 156 447 139 418 q 174 488 174 475 l 172 522 q 195 563 172 543 q 222 590 218 583 q 228 619 225 597 q 236 650 231 642 q 263 667 242 658 q 292 682 285 675 q 308 710 299 689 q 327 740 318 732 q 363 753 336 747 q 397 763 389 758 q 425 790 404 767 q 465 815 446 814 l 501 813 q 541 828 519 813 q 578 844 563 844 l 639 828 l 701 844 q 742 827 719 844 q 781 810 764 810 l 819 814 q 860 791 842 814 q 887 763 878 768 q 917 754 896 758 q 948 743 938 750 q 965 717 958 736 q 980 690 972 697 q 1015 669 988 683 q 1049 643 1043 654 q 1056 610 1056 632 q 1060 581 1057 588 q 1088 555 1064 575 q 1111 513 1111 535 l 1110 478 q 1126 434 1110 460 q 1143 396 1143 408 q 1135 365 1143 383 q 1128 338 1128 347 q 1135 308 1128 328 q 1142 276 1143 288 q 1125 248 1142 265 q 1108 211 1108 231 l 1111 167 q 1089 126 1111 144 q 1063 101 1067 108 q 1053 68 1060 94 q 1040 33 1047 42 q 1015 16 1032 24 q 990 1 997 8 q 971 -28 983 -6 q 949 -58 958 -51 q 915 -72 939 -65 q 883 -82 890 -78 q 858 -105 876 -86 q 818 -124 839 -124 m 642 -8 l 688 -18 q 711 -8 696 -18 q 749 6 732 6 l 769 4 q 799 18 786 4 q 816 35 811 32 q 839 42 821 38 q 865 53 857 47 q 881 74 872 58 q 895 95 890 90 q 913 106 900 100 q 931 117 925 111 q 940 143 936 124 q 948 168 944 163 q 967 186 951 174 q 982 218 982 199 l 981 246 q 992 274 981 261 q 1006 296 1004 288 l 994 340 l 1006 379 q 993 410 1006 390 q 981 442 981 429 l 982 465 q 965 496 982 482 q 946 515 949 510 q 942 537 943 521 q 938 560 942 553 q 913 578 933 568 q 888 594 893 589 q 876 614 882 600 q 864 633 871 628 q 842 642 857 639 q 819 648 826 644 q 800 668 813 651 q 771 685 788 685 l 743 682 q 715 694 731 682 q 686 707 700 707 l 640 694 l 596 707 q 568 695 585 707 q 538 683 551 683 l 514 685 q 484 667 499 685 q 463 647 469 650 q 439 640 457 643 q 414 631 421 636 q 400 610 407 625 q 388 589 393 594 q 367 578 382 583 q 347 565 353 572 q 342 544 344 560 q 336 522 339 528 q 317 502 333 517 q 300 472 300 488 l 301 450 q 290 418 301 439 q 278 386 278 397 l 289 344 l 278 299 q 290 270 278 288 q 301 242 301 253 l 299 219 q 316 188 299 204 q 336 167 333 172 q 341 147 339 161 q 349 123 343 132 q 368 108 354 114 q 388 98 382 103 q 401 75 393 93 q 417 51 408 57 q 438 46 425 46 q 460 42 451 46 q 484 20 468 38 q 515 3 500 3 l 536 4 q 567 -8 550 4 q 592 -21 583 -19 l 642 -8 m 475 510 q 510 545 475 510 q 642 579 544 579 q 808 510 739 579 q 878 343 878 442 q 808 176 878 244 q 642 107 739 107 q 475 176 544 107 q 406 343 406 244 q 475 510 406 442 m 701 406 l 774 406 l 774 500 l 508 500 l 508 406 l 583 406 l 583 163 l 701 163 l 701 406 z "},"ﬀ":{"ha":1092,"x_min":28,"x_max":1050,"o":"m 950 1042 l 1001 804 q 824 658 875 760 l 1050 665 l 1046 572 l 910 561 l 840 -8 l 703 -21 l 644 542 l 413 524 l 347 -8 l 210 -21 l 156 503 l 36 494 l 28 638 l 153 640 q 251 928 163 828 q 457 1042 339 1028 l 508 804 q 324 646 376 760 l 646 654 q 747 933 660 836 q 950 1042 835 1029 z "},"ﬁ":{"ha":1049,"x_min":28,"x_max":951,"o":"m 725 -21 l 663 582 l 415 547 l 347 -8 l 210 -21 l 154 511 l 36 494 l 28 638 l 153 647 q 188 818 158 743 q 261 939 217 893 q 457 1042 344 1028 l 508 804 q 332 663 386 761 l 951 713 l 863 -8 l 725 -21 m 698 822 q 679 841 698 822 q 660 913 660 860 q 698 1003 660 965 q 789 1042 736 1042 q 880 1003 842 1042 q 918 913 918 965 q 880 822 918 860 q 789 783 842 783 q 698 822 736 783 z "},"ﬂ":{"ha":1035,"x_min":28,"x_max":938,"o":"m 579 814 q 325 653 411 814 l 557 665 l 553 572 l 415 551 l 347 -8 l 210 -21 l 154 513 l 36 494 l 28 638 l 153 643 q 247 928 163 814 q 483 1042 332 1042 q 750 965 601 1042 l 938 994 l 849 -8 l 711 -21 l 650 806 q 579 814 614 814 z "},"ﬃ":{"ha":1689,"x_min":28,"x_max":1444,"o":"m 1218 -21 l 1154 596 l 911 574 l 840 -8 l 703 -21 l 643 550 l 413 529 l 347 -8 l 210 -21 l 156 506 l 36 494 l 28 638 l 153 644 q 251 929 164 831 q 457 1042 339 1028 l 508 804 q 328 653 379 758 l 647 669 q 751 936 664 843 q 950 1042 838 1029 l 1001 804 q 835 679 890 767 l 1444 713 l 1356 -8 l 1218 -21 m 1191 822 q 1172 841 1191 822 q 1153 913 1153 860 q 1191 1003 1153 965 q 1282 1042 1229 1042 q 1373 1003 1335 1042 q 1411 913 1411 965 q 1373 822 1411 860 q 1282 783 1335 783 q 1191 822 1229 783 z "},"ﬄ":{"ha":1529,"x_min":28,"x_max":1432,"o":"m 1074 814 q 929 774 994 814 q 824 658 864 733 l 1050 665 l 1046 572 l 911 561 l 842 -8 l 704 -21 l 646 542 l 413 524 l 347 -8 l 210 -21 l 156 503 l 36 494 l 28 638 l 153 640 q 251 928 163 828 q 457 1042 339 1028 l 508 804 q 324 646 376 760 l 647 654 q 744 931 660 821 q 978 1042 828 1042 q 1244 965 1096 1042 l 1432 994 l 1343 -8 l 1206 -21 l 1144 806 q 1074 814 1108 814 z "}}}
